<svg xmlns="http://www.w3.org/2000/svg" viewBox="0 0 512 512"><path d="M405.4 362.6c-35.2 0-63.8 28.6-63.8 63.8s28.6 63.8 63.8 63.8 63.8-28.6 63.8-63.8-28.6-63.8-63.8-63.8zm0 89.4c-14.1 0-25.5-11.5-25.5-25.5s11.5-25.5 25.5-25.5 25.5 11.5 25.5 25.5-11.4 25.5-25.5 25.5zm102.5-336.1c-3.6-4.6-9.2-7.3-15.1-7.3H118.2L101 36.4c-2.1-8.6-9.8-14.7-18.6-14.7H19.2C8.6 21.7 0 30.3 0 40.9S8.6 60 19.2 60h48.1l62.2 260.4c2.1 8.6 9.8 14.7 18.6 14.7h298.1c8.8 0 16.5-6 18.6-14.5l46.6-188.3c1.4-5.7.2-11.8-3.5-16.4zm-76.6 181h-268l-35.9-150h341l-37.1 150zm-257.7 65.7c-35.2 0-63.8 28.6-63.8 63.8s28.6 63.8 63.8 63.8 63.8-28.6 63.8-63.8-28.6-63.8-63.8-63.8zm0 89.4c-14.1 0-25.5-11.5-25.5-25.5s11.5-25.5 25.5-25.5 25.5 11.5 25.5 25.5-11.4 25.5-25.5 25.5z"/></svg>