<svg xmlns="http://www.w3.org/2000/svg" viewBox="0 0 512 512"><path d="M440 188h-8v-64c0-22.1-17.9-40-40-40H120c-22.1 0-40 17.9-40 40v64h-8c-39.7 0-72 32.3-72 72v112h16v56h40v-56h400v56h40v-56h16V260c0-39.7-32.3-72-72-72zM96 124c0-13.3 10.7-24 24-24h272c13.3 0 24 10.7 24 24v64h-24v-32c0-13.3-10.7-24-24-24h-72c-13.3 0-24 10.7-24 24v32h-32v-32c0-13.3-10.7-24-24-24h-72c-13.3 0-24 10.7-24 24v32H96v-64zm280 32v32h-88v-32c0-4.4 3.6-8 8-8h72c4.4 0 8 3.6 8 8zm-152 0v32h-88v-32c0-4.4 3.6-8 8-8h72c4.4 0 8 3.6 8 8zM40 412h-8v-40h8v40zm440 0h-8v-40h8v40zm16-56H16v-40h480v40zm0-56H16v-40c0-30.9 25.1-56 56-56h368c30.9 0 56 25.1 56 56v40z" fill="#2d5266"/></svg>