<svg xmlns="http://www.w3.org/2000/svg" viewBox="0 0 512 512"><path d="M502 84.5h-40.9c-5.5 0-10 4.5-10 10v11.2H244.9c-23.2 0-42.3 17.9-44.1 40.7h-29.7c-3.2-21.3-21.6-37.7-43.8-37.7H60.9V48.5c0-5.5-4.5-10-10-10H10c-5.5 0-10 4.5-10 10v415.1c0 5.5 4.5 10 10 10h40.9c5.5 0 10-4.5 10-10V431h390.2v32.5c0 5.5 4.5 10 10 10H502c5.5 0 10-4.5 10-10v-369c0-5.5-4.5-10-10-10zM200.8 331.3h-29.7c-3.2-21.3-21.6-37.7-43.8-37.7H60.9V246h390.2v44.6H244.9c-23.2.1-42.3 18-44.1 40.7zm-.2-164.9V188c0 5.5 4.5 10 10 10h240.5v28.1H60.9v-59.7h139.7zM60.9 313.7h66.4c11.1 0 20.5 7.5 23.3 17.7H60.9v-17.7zm159.7 21.2c0-13.4 10.9-24.2 24.2-24.2H451V363H220.6v-28.1zm0-184.9c0-13.4 10.9-24.2 24.2-24.2H451V178H220.6v-28zm-93.3-21.3c11.1 0 20.5 7.5 23.3 17.7H60.9v-17.7h66.4zM40.9 453.5H20v-395h20.9v395zm20-42.5v-59.7h139.7v21.6c0 5.5 4.5 10 10 10h240.5V411H60.9zM492 453.5h-20.9v-349H492v349z" fill="#2d5266"/></svg>