<svg version="1.1" id="Layer_1" xmlns="http://www.w3.org/2000/svg" x="0" y="0" viewBox="0 0 315 315" xml:space="preserve"><style>.st0{fill:#2d5266}</style><path class="st0" d="M266.2 0H48.8c-3.9 0-7 3.1-7 7v275.4c0 3.9 3.1 7 7 7h18.5V308c0 3.9 3.1 7 7 7s7-3.1 7-7v-18.6h152.5V308c0 3.9 3.1 7 7 7s7-3.1 7-7v-18.6h18.5c3.9 0 7-3.1 7-7V7c-.1-3.9-3.2-7-7.1-7zM55.8 14h94.7v261.4H55.8V14zm203.4 261.4h-94.7V14h94.7v261.4z"/><circle class="st0" cx="123.1" cy="157.5" r="8.3"/><circle class="st0" cx="191.9" cy="157.5" r="8.3"/></svg>