<svg version="1.1" id="Layer_1" xmlns="http://www.w3.org/2000/svg" x="0" y="0" viewBox="0 0 490 490" xml:space="preserve"><style>.st0{fill:#2d5266}</style><path class="st0" d="M480 220H300V10c0-5.5-4.5-10-10-10H10C4.5 0 0 4.5 0 10v470c0 5.5 4.5 10 10 10h265c5.5 0 10-4.5 10-10v-30h120v30c0 5.5 4.5 10 10 10h35c5.5 0 10-4.5 10-10v-30h5c5.5 0 10-4.5 10-10V275h5c5.5 0 10-4.5 10-10v-35c0-5.5-4.5-10-10-10zM140 470H20v-85h120v85zm0-105H20V20h120v345zm90 105h-70V20h120v200h-75c-5.5 0-10 4.5-10 10v35c0 5.5 4.5 10 10 10h10v165c0 5.5 4.5 10 10 10h5v20zm35 0h-15v-20h15v20zm175 0h-15v-20h15v20zm15-40H235v-70h220v70zm0-90H235v-65h220v65zm15-85H215v-15h255v15z"/><path class="st0" d="M330 295h30v20h-30zm0 85h30v20h-30zM180 160h20v40h-20zm-80 0h20v40h-20zM65 415h30v20H65z"/></svg>