<svg xmlns="http://www.w3.org/2000/svg" viewBox="0 0 512 512"><path d="M480 149.3h-10.7V96c0-29.4-23.9-53.3-53.3-53.3H96c-29.4 0-53.3 23.9-53.3 53.3v53.3H32c-17.6 0-32 14.4-32 32v213.3c0 17.6 14.4 32 32 32h10.7v32c0 5.9 4.8 10.7 10.7 10.7h85.3c5.9 0 10.7-4.8 10.7-10.7v-32h213.3v32c0 5.9 4.8 10.7 10.7 10.7h85.3c5.9 0 10.7-4.8 10.7-10.7v-32H480c17.6 0 32-14.4 32-32V181.3c0-17.6-14.4-32-32-32zM64 96c0-17.6 14.4-32 32-32h320c17.6 0 32 14.4 32 32v53.3h-10.7c-17.6 0-32 14.4-32 32V256H106.7v-74.7c0-17.6-14.4-32-32-32H64V96zm341.3 181.3V320H106.7v-42.7h298.6zM128 448H64v-21.3h64V448zm320 0h-64v-21.3h64V448zm42.7-53.3c0 5.9-4.8 10.7-10.7 10.7H32c-5.9 0-10.7-4.8-10.7-10.7V181.3c0-5.9 4.8-10.7 10.7-10.7h42.7c5.9 0 10.7 4.8 10.7 10.7v149.3c0 5.9 4.8 10.7 10.7 10.7h320c5.9 0 10.7-4.8 10.7-10.7V181.3c0-5.9 4.8-10.7 10.7-10.7H480c5.9 0 10.7 4.8 10.7 10.7v213.4z" fill="#2d5266"/></svg>