<svg version="1.1" id="Layer_1" xmlns="http://www.w3.org/2000/svg" x="0" y="0" viewBox="0 0 512 512" xml:space="preserve"><style>.st0{fill:#2d5266}</style><path class="st0" d="M384 0H128C98.6 0 74.7 23.9 74.7 53.3V480c0 5.9 4.8 10.7 10.7 10.7H96v10.7c0 5.9 4.8 10.7 10.7 10.7s10.7-4.8 10.7-10.7v-10.7h277.3v10.7c0 5.9 4.8 10.7 10.7 10.7s10.7-4.8 10.7-10.7v-10.7h10.7c5.9 0 10.7-4.8 10.7-10.7V53.3C437.3 23.9 413.4 0 384 0zM245.3 469.3H96v-416c0-17.6 14.4-32 32-32h117.3v448zm170.7 0H266.7v-448H384c17.6 0 32 14.4 32 32v416z"/><path class="st0" d="M298.7 213.3c-5.9 0-10.7 4.8-10.7 10.7v21.3c0 5.9 4.8 10.7 10.7 10.7s10.7-4.8 10.7-10.7V224c-.1-5.9-4.8-10.7-10.7-10.7zM178.2 88.5c-4.2-4.2-10.9-4.2-15.1 0l-42.7 42.7c-4.2 4.2-4.2 10.9 0 15.1 2.1 2.1 4.8 3.1 7.6 3.1 2.7 0 5.5-1 7.5-3.1l42.7-42.7c4.2-4.2 4.2-11 0-15.1zm42.7 21.3c-4.2-4.2-10.9-4.2-15.1 0l-85.3 85.3c-4.2 4.2-4.2 10.9 0 15.1 2.1 2.1 4.8 3.1 7.6 3.1 2.7 0 5.5-1 7.5-3.1l85.3-85.3c4.1-4.2 4.1-10.9 0-15.1zm0 170.7c-4.2-4.2-10.9-4.2-15.1 0l-85.3 85.3c-4.2 4.2-4.2 10.9 0 15.1 2.1 2.1 4.8 3.1 7.6 3.1 2.7 0 5.5-1 7.5-3.1l85.3-85.3c4.1-4.2 4.1-11 0-15.1zm0 64c-4.2-4.2-10.9-4.2-15.1 0l-42.7 42.7c-4.2 4.2-4.2 10.9 0 15.1 2.1 2.1 4.8 3.1 7.6 3.1s5.5-1 7.5-3.1l42.7-42.7c4.1-4.2 4.1-11 0-15.1z"/></svg>