<svg version="1.1" id="Layer_1" xmlns="http://www.w3.org/2000/svg" x="0" y="0" viewBox="0 0 512 512" xml:space="preserve"><style>.st0{fill:#5586a4}</style><path class="st0" d="M384 0H128C98.6 0 74.7 23.9 74.7 53.3V480c0 5.9 4.8 10.7 10.7 10.7H96v10.7c0 5.9 4.8 10.7 10.7 10.7s10.7-4.8 10.7-10.7v-10.7h277.3v10.7c0 5.9 4.8 10.7 10.7 10.7s10.7-4.8 10.7-10.7v-10.7h10.7c5.9 0 10.7-4.8 10.7-10.7V53.3C437.3 23.9 413.4 0 384 0zM245.3 469.3H96v-416c0-17.6 14.4-32 32-32h117.3v448zm170.7 0H266.7v-128H416v128zm0-149.3H266.7V192H416v128zm0-149.3H266.7V21.3H384c17.6 0 32 14.4 32 32v117.4z"/><path class="st0" d="M213.3 213.3c-5.9 0-10.7 4.8-10.7 10.7v21.3c0 5.9 4.8 10.7 10.7 10.7s10.7-4.8 10.7-10.7V224c0-5.9-4.8-10.7-10.7-10.7z"/></svg>