<?xml version="1.0" encoding="utf-8"?><svg xmlns="http://www.w3.org/2000/svg" xmlns:xlink="http://www.w3.org/1999/xlink"><symbol viewBox="0 0 289 492" id="arrow" xmlns="http://www.w3.org/2000/svg"><path d="M281.2 226.8L62.3 7.9C57.2 2.8 50.4 0 43.2 0s-14 2.8-19 7.9L8.1 24c-10.5 10.5-10.5 27.6 0 38L192 245.9 7.9 430C2.8 435 0 441.8 0 449c0 7.2 2.8 14 7.9 19L24 484.1c5.1 5.1 11.8 7.9 19 7.9s14-2.8 19-7.9L281.2 265c5.1-5.1 7.9-11.9 7.8-19.1.1-7.2-2.7-14-7.8-19.1z"/></symbol><symbol viewBox="0 0 512 512" id="cart" xmlns="http://www.w3.org/2000/svg"><path d="M405.4 362.6c-35.2 0-63.8 28.6-63.8 63.8s28.6 63.8 63.8 63.8 63.8-28.6 63.8-63.8-28.6-63.8-63.8-63.8zm0 89.4c-14.1 0-25.5-11.5-25.5-25.5s11.5-25.5 25.5-25.5 25.5 11.5 25.5 25.5-11.4 25.5-25.5 25.5zm102.5-336.1c-3.6-4.6-9.2-7.3-15.1-7.3H118.2L101 36.4c-2.1-8.6-9.8-14.7-18.6-14.7H19.2C8.6 21.7 0 30.3 0 40.9S8.6 60 19.2 60h48.1l62.2 260.4c2.1 8.6 9.8 14.7 18.6 14.7h298.1c8.8 0 16.5-6 18.6-14.5l46.6-188.3c1.4-5.7.2-11.8-3.5-16.4zm-76.6 181h-268l-35.9-150h341l-37.1 150zm-257.7 65.7c-35.2 0-63.8 28.6-63.8 63.8s28.6 63.8 63.8 63.8 63.8-28.6 63.8-63.8-28.6-63.8-63.8-63.8zm0 89.4c-14.1 0-25.5-11.5-25.5-25.5s11.5-25.5 25.5-25.5 25.5 11.5 25.5 25.5-11.4 25.5-25.5 25.5z"/></symbol><symbol viewBox="0 0 511.6 438.5" id="heart" xmlns="http://www.w3.org/2000/svg"><path d="M475.4 35.4C451.2 11.8 417.8 0 375.2 0c-11.8 0-23.8 2-36.1 6.1s-23.7 9.6-34.3 16.6c-10.6 6.9-19.6 13.5-27.3 19.6-7.6 6.1-14.8 12.6-21.7 19.4-6.9-6.8-14.1-13.3-21.7-19.4-7.6-6.1-16.7-12.6-27.3-19.6-10.6-7-22-12.5-34.3-16.6C160.3 2 148.3 0 136.5 0c-42.6 0-76 11.8-100.2 35.4C12.1 59 0 91.7 0 133.6c0 12.8 2.2 25.9 6.7 39.4s9.6 25 15.3 34.5c5.7 9.5 12.2 18.8 19.4 27.8 7.2 9 12.5 15.3 15.8 18.7 3.3 3.4 5.9 5.9 7.9 7.4l178.2 171.9c3.4 3.4 7.6 5.1 12.6 5.1 4.9 0 9.1-1.7 12.6-5.1L446.4 262c43.6-43.6 65.4-86.4 65.4-128.5-.2-41.8-12.3-74.5-36.4-98.1zm-54 199.9L255.8 394.8 89.9 235c-35.6-35.6-53.4-69.4-53.4-101.4 0-15.4 2-29 6.1-40.8C46.8 81 52 71.6 58.4 64.7c6.4-6.9 14.1-12.6 23.3-17 9.1-4.4 18.1-7.3 26.8-8.8 8.8-1.5 18.1-2.3 28-2.3 9.9 0 20.6 2.4 32 7.3 11.4 4.9 21.9 10.9 31.5 18.3 9.6 7.3 17.8 14.2 24.7 20.6 6.9 6.4 12.6 12.2 17.1 17.6 3.4 4.2 8.1 6.3 14 6.3s10.6-2.1 14-6.3c4.6-5.3 10.3-11.2 17.1-17.6 6.9-6.4 15.1-13.2 24.7-20.6 9.6-7.3 20.1-13.4 31.6-18.3 11.4-4.9 22.1-7.3 32-7.3s19.2.8 28 2.3c8.8 1.5 17.7 4.5 26.8 8.8 9.1 4.4 16.9 10 23.3 17 6.4 6.9 11.6 16.3 15.7 28.1s6.1 25.4 6.1 40.8c0 32-17.9 65.9-53.7 101.7z"/></symbol><symbol viewBox="0 0 511.6 438.5" id="heart--filled" xmlns="http://www.w3.org/2000/svg"><path d="M475.4 35.4C451.2 11.8 417.8 0 375.2 0c-11.8 0-23.8 2-36.1 6.1s-23.7 9.6-34.3 16.6c-10.6 6.9-19.6 13.5-27.3 19.6-7.6 6.1-14.8 12.6-21.7 19.4-6.9-6.8-14.1-13.3-21.7-19.4-7.6-6.1-16.7-12.6-27.3-19.6-10.6-7-22-12.5-34.3-16.6C160.3 2 148.3 0 136.5 0c-42.6 0-76 11.8-100.2 35.4C12.1 59 0 91.7 0 133.6c0 12.8 2.2 25.9 6.7 39.4s9.6 25 15.3 34.5c5.7 9.5 12.2 18.8 19.4 27.8 7.2 9 12.5 15.3 15.8 18.7 3.3 3.4 5.9 5.9 7.9 7.4l178.2 171.9c3.4 3.4 7.6 5.1 12.6 5.1 4.9 0 9.1-1.7 12.6-5.1L446.4 262c43.6-43.6 65.4-86.4 65.4-128.5-.2-41.8-12.3-74.5-36.4-98.1z"/></symbol><symbol viewBox="0 0 57 57" id="icon-search" xmlns="http://www.w3.org/2000/svg"><path d="M55.1 51.9L41.6 37.8C45.1 33.6 47 28.4 47 23 47 10.3 36.7 0 24 0S1 10.3 1 23s10.3 23 23 23c4.8 0 9.3-1.4 13.2-4.2L50.8 56c.6.6 1.3.9 2.2.9.8 0 1.5-.3 2.1-.8 1.2-1.1 1.2-3 0-4.2zM24 6c9.4 0 17 7.6 17 17s-7.6 17-17 17S7 32.4 7 23 14.6 6 24 6z"/></symbol><symbol viewBox="0 0 270.4 98.1" id="iconSheer"><path d="M175.1 51.8c.2 1.2.3 2.1.5 3 2 8.4 8.6 14 17.2 14.7 7.6.6 13.6-2.3 18-8.5 2.2-3 5.7-3.5 8.5-1.1 1.6 1.4 1.8 3.2.5 4.9-.7.9-1.4 1.8-2.1 2.8-2.9 4-6.7 6.7-11.4 8.3-7.6 2.6-15.2 3-22.7.2-10.1-3.7-16.1-11.1-17.8-21.7-1-6.5-.4-13 2.6-18.9 4.3-8.4 11.1-13.6 20.5-15.1 6.2-1 12.4-.4 18.2 2.4 8.2 3.9 13.2 10.5 15.1 19.3.5 2.4.7 4.9.9 7.3.2 1.5-.5 2.2-2.1 2.3h-44.1c-.4.1-.9.1-1.8.1zm38.3-9.2c-1.2-7.9-10.7-14.7-19.4-14.2-9.1.5-18.2 7.5-18.5 14.2h37.9zm-101 9c.1.8.2 1.4.3 2 1.7 9.3 9.3 15.7 18.7 15.9 7.1.1 12.7-2.8 16.8-8.6 2.2-3.1 6.1-3.4 8.8-.7 1.3 1.4 1.5 3 .3 4.6-.5.8-1.1 1.5-1.7 2.2-3.1 4.5-7.3 7.4-12.5 9.1-7.6 2.5-15.2 2.7-22.5-.2-10.6-4.1-16.4-12.1-17.6-23.3-.6-5.4-.1-10.7 2.2-15.6 4.3-9.4 11.4-15.2 21.8-16.6 5.5-.7 11-.3 16.1 1.8 9.2 3.8 14.6 10.9 16.6 20.6.4 2.2.6 4.5.7 6.7.1 1.8-.3 2.2-2.2 2.2h-43.5c-.7-.1-1.4-.1-2.3-.1zm38.4-9.1c-1.2-7.8-10.4-14.4-19.4-14.2-8.8.2-17.9 7.2-18.6 14.2h38zm101 13.5c.7.6 1.1 1 1.5 1.4 4.9 4.2 9.8 8.3 14.6 12.5.3.3.7.6 1 .9 1.8 1.8 2 4.4.3 6.2-1.6 1.8-4.2 2.1-6.1.5-3.4-2.8-6.7-5.7-10-8.5-4.8-4.1-9.5-8.1-14.3-12.2-.4-.4-.9-.7-1.6-1.3 0 1-.1 1.6-.1 2.3v36.1c-.2 2.5-2.1 4.3-4.6 4.2-2.4-.1-4.1-1.9-4.2-4.4V21.9c0-1.6.2-1.9 1.7-1.9 2.1-.1 4.2-.1 6.2-.1 5 0 10.1.2 15.1-.1 8.4-.4 17.8 6.4 18.7 16.3.8 8.9-5.2 17.3-14.3 19.1-1.1.2-2.3.5-3.9.8zm-15.3-6.9c.5.1.9.1 1.2.1h12.6c1.2 0 2.4-.1 3.6-.5 3.9-1.2 7-3.5 8-7.7 1.7-7.1-3.6-13.7-10.9-13.7h-13c-.5 0-1 .1-1.5.1v21.7zM88.5 52H63.9c0 .7-.1 1.4-.1 2v18.9c0 .8 0 1.6-.2 2.3-.6 1.9-2.6 3.1-4.5 3-2.1-.2-3.8-1.8-4.1-3.9-.1-.5 0-1 0-1.5V5.4c0-.9.1-1.8.4-2.6.6-2 2.6-3 4.7-2.8 1.9.3 3.5 2 3.7 3.9.1.6 0 1.2 0 1.8v34.7c0 .7.1 1.4.1 2 1.5.4 22.9.4 24.5 0 0-.5.1-1.1.1-1.7V23.9c.2-2.3 1.9-4 4.2-4.1 2.3-.1 4.3 1.6 4.6 3.9.1.5 0 1 0 1.5v48.9c-.3 2.3-2.3 4.1-4.5 4-2.3-.1-4.1-1.9-4.3-4.2V52zM25 78.3c-5.9-.1-11.4-1.4-16.5-4.4-2.2-1.3-4.2-2.9-5.8-4.8-.8-1-1.6-2.1-2.2-3.3-1-1.9-.6-3.4.9-4.9 1.7-1.6 4.1-2.3 6.4-.7C9 61 10 62 10.9 63c.9.9 1.6 1.9 2.5 2.8 2.7 2.7 6 4.2 9.8 4.6 3.5.4 7 .3 10.4-.9 1.4-.5 2.8-1.2 4-2.1 2.9-2.2 3-5.9.2-8.2-1.3-1.1-2.9-1.9-4.5-2.6-4-1.7-8.1-2.9-12.3-4-3.4-.8-6.7-1.9-10.1-2.9-1.3-.4-2.5-1.1-3.7-1.7-3.2-1.7-5-4.4-5.5-7.9-1-7.1 1.7-12.8 8.1-15.9 9.8-4.8 19.7-5.2 29.4.4 1.8 1 3.5 2.5 5.1 3.9 1.2 1 2 2.5 2.5 4 .8 2.6-.5 3.9-2.8 4.4-2 .4-3.8-.2-5.2-1.7-.3-.3-.5-.6-.7-.9-2.3-3.4-5.6-5.3-9.6-6.1-4-.7-8-.6-11.8.9-1.4.5-2.8 1.3-3.9 2.3-2.7 2.3-2.7 5.4-.1 7.8 1.7 1.6 3.7 2.5 5.9 3 4.8 1.2 9.7 2.4 14.5 3.6 3.1.8 6.1 1.8 8.9 3.4 3.6 1.9 6.2 4.7 7.1 8.8 1.1 5 0 9.4-3.9 13-4.4 4-9.5 6.3-15.4 7-1.7.1-3.3.2-4.8.3z"/></symbol><symbol viewBox="0 0 440.8 440.8" id="insta" xmlns="http://www.w3.org/2000/svg"><path d="M306.7 425.4H129.1c-64.7 0-117.3-52.6-117.3-117.3V130.5c0-64.7 52.6-117.3 117.3-117.3h177.6c64.7 0 117.3 52.6 117.3 117.3v177.6c0 64.7-52.6 117.3-117.3 117.3zM129.1 48.6c-45.2 0-82 36.8-82 82v177.6c0 45.2 36.8 82 82 82h177.6c45.2 0 82-36.8 82-82V130.5c0-45.2-36.8-82-82-82H129.1z"/><path d="M217.9 324.9c-58.2 0-105.5-47.3-105.5-105.5s47.3-105.5 105.5-105.5 105.5 47.3 105.5 105.5c0 58.1-47.3 105.5-105.5 105.5zm0-175.8c-38.7 0-70.2 31.5-70.2 70.2s31.5 70.2 70.2 70.2 70.2-31.5 70.2-70.2-31.5-70.2-70.2-70.2zm135.4-41.4c0 14-11.4 25.4-25.4 25.4-14 0-25.4-11.4-25.4-25.4 0-14 11.4-25.4 25.4-25.4 14.1.1 25.4 11.4 25.4 25.4z"/></symbol><symbol viewBox="0 0 24 24" id="list" xmlns="http://www.w3.org/2000/svg"><path fill-rule="evenodd" d="M22 17v2H8v-2h14zm0-6v2H8v-2h14zm0-6v2H8V5h14zM4 20a2 2 0 110-4 2 2 0 010 4zm0-6a2 2 0 110-4 2 2 0 010 4zm0-6a2 2 0 110-4 2 2 0 010 4z"/></symbol><symbol id="logo" viewBox="0 0 224.7 93.4" xml:space="preserve" xmlns="http://www.w3.org/2000/svg"><style>.ist0{fill:#2e5366}.ist1{fill-rule:evenodd;clip-rule:evenodd;fill:#0d1014}.ist2{fill:#99a5aa}</style><path class="ist0" d="M17.8 32.4h.6v.6l-.7 1.2-.3-.3h-.3l.7-1.5zM7 32.7h.6l.8.6V33c1 .2 1.8.7 2.2 1.5.7 0 1.4 2 2.1 6.1l4-6.1.3-.3h.3v.3l-4.1 7.3h.6c3.1-6 4.9-9 5.5-9l.8.6v-.3c.8 0 1.8 1 3 2.9l-.1.8-.3.3.3.3-.1 1.2h-.6l.4 1.8-.6 3.2-.1.7.3.3v.3l-.6.6.5.6-.6.6.5.6-.3.3h-.3l.3.3L21 56c-.6 0-.9.3-.9.9-.6 0-.9.5-1 1.5h-.9l-1.6-1.2.4-1.7-.4-1.8 2-12.5c-1 1-2 3.2-3.2 6.4-.1 1.1-.6 1.9-1.4 2.3h-.3v-.3l.3-.3V49l-.3-.3.6-.6.1-.9h-.6c-.1 1.1-.5 1.8-1.4 2.3h-.3L10.8 48c-.5 0-.8-.9-.9-2.6-1-2-1.4-3.5-1.4-4.4h-.2l-.6 3.5-.2 2.5-.4.9.2 1.5-.6 6.4c-.4 0-.6.3-.7.9L4.5 58h-.3l-2-.9.4-1.5v-3.2l.1-1.5.3-.3-.3-.3V50c.3-3 .8-6.2 1.7-9.6h.3l-.3-.3v-.3l.6-1-.2-1.2v-.3h.3l-.1.6h.3l.1-.9-.3-.3 1.1-2 .1-.9-.3.3h-.3l-.3-.3.1-.8h.3l.3.3h.3l.6-.6zm7.3 13.1l.2.9h.3c.1-1 1.3-3.7 3.6-7.9l.4-1.5c-1.4 1.9-2.9 4.7-4.5 8.5zm5.2-6.1l-.3.3-.6 7.3h.3l.8-6.1-.3-.3h.3l-.3-.3v-.3l.3-.3v-.3h-.2zm-1.9 15.1l-.2 2.3h.3l.4-1.5-.2-.9h-.3v.1zm21.6-22l1.4 1c-.4 1.7-1.1 2.5-2.2 2.5l-7.6.3v.6l1.4.1 1.8-.2.3.3h.3l2.1-.2h.6v.3l-6.8.7L30 42h.3l7.9-.6.3.3v.3h-.6v.3l2 .4v.3c-.4 1.1-3.2 2-8.4 2.6l-2.9.1.3.3-1.4 3.7h-.3l.2-2.6h-.3l-.6 4.1c5.8-.8 9.9-1.1 12.3-.9l1.4.4v.6h-.6l.3.3-.1.9c-.6.7-1.7 1-3.6.9v.3l2.3.1v.6l-13.6 2h-.3c-1-.2-1.4-.5-1.4-1l.1-.9.8-3.2-.3-.3h.6l-.1 1.5h.3c.1-1 .3-1.4.7-1.4l-.3-.3.2-2.9h-.6l-.6 1.4.3-.3h.3l-.1 1.8h-.3l.1-.9H24v.6h-.3v-.6l.9-4.9h-.3l.7-1.4-.3-.3V43l.6-4.9.3.3h.3v-.6l-.2-1.5.5-2.6.1-.9h.3l.3.3.3-.3h.3l.3.3.3-.3.9.1 10.2-.1zM24.6 45.6l-.1 2h.3l.1-2h-.3zm9.6.3h.3v.3l-5.3.5-.3-.3v-.3l2.6-.1v.3l2.7-.4zm17.9-13.8l1.4.5v.3l-1.5-.3.1-.5zm-5.6-.1l.8.7 2.7-.3.2.3h.3l.9-.2c3.3.3 5.6 2 7.1 4.9.4 0 .5.5.4 1.5l-.2 2-.6-.1v-.3l.4-.8-.3-.3.3-.3-.3-.3-.6-.1c-.1 1.1-1.2 2.3-3.3 3.4v.3h.3c.7.1 1.8-.3 3.1-1.1l-.1.6-1.6 1.6c1.1.1 2.6 1.9 4.7 5.2-.2 2.1-3.4 4.3-9.5 6.6-2.6 1.3-4.6 1.8-6.1 1.7l-.5-.7h-.3c-.1.6-.5.8-1.3.7-.1.6-.3.9-.7.8-.4 0-.5-.7-.3-2.1h-.3l-.5 1.4h-.3c.2-1.9 0-2.9-.6-3l-.2-1.2.3-.3-.3-.3L42.9 40l.1-.1h.3l-.3-.3.8-4.3V35l-.4-2.1h.3c1.3-.7 2.2-.9 2.8-.9zm6.9 3.7v.3l2.3.5c0-.4-.2-.6-.8-.7l-1.5-.1zm-5.6 2.9l.1 2.1 2.7-.3-.1.6 4.3-1.9v.3l-2.2 1.5c2.4-.7 3.7-1.8 3.9-3.4l-.6-.1c-.1 1-.4 1.4-1 1.4l.1-.6h-.3l.4-.8.2.3h.3v-.3c-.7-.7-1.8-1.1-3.4-1.3-2.7-.2-4.2.6-4.4 2.5zm6.8-.4v.3l-.6.5h-.3l.9-.8zm-1.3 6.9v.3l2.9.6h.3v-.3l-1.1-.4-2.1-.2zm-6.6 1l-.9 5.2.3.3h.3c1.4.2 4.6-1.1 9.5-3.7l.6-.5c0-.8-.8-1.3-2.2-1.4l-2.3-.2-5.3.3zm10.4 1.2l-.7 1.1 1.3-.7-.3-.3-.3-.1zm2 1.4c-.1.6-2 2.1-5.8 4.4 4.3-1.7 6.5-3 6.6-4h-.3l-.2-.3-.3-.1zm16.6-15.9l1.4 1c-.4 1.7-1.1 2.5-2.2 2.5l-7.6.3v.6l1.4.1 1.8-.2.3.3h.3l2.1-.2h.6v.3l-6.8.7-.5 3.8h.3l7.9-.6.3.3v.3h-.6v.3l2 .4v.3c-.4 1.1-3.2 2-8.4 2.6l-2.9.1.3.3-1.4 3.7h-.3l.2-2.6h-.3l-.6 4.1c5.8-.8 9.9-1.1 12.3-.9l1.4.4v.6h-.6l.3.3-.1.9c-.6.7-1.7 1-3.6.9v.3l2.3.1v.6l-13.6 2h-.3c-1-.2-1.4-.5-1.4-1l.1-.9.8-3.2-.3-.3h.6l-.1 1.5h.3c.1-1 .3-1.4.7-1.4l-.3-.3.2-2.9h-.6l-.4 1.4.3-.3h.3l-.1 1.8h-.3l.1-.9h-.3v.6h-.3v-.6l.9-4.9H61l.7-1.4-.3-.3V43l.6-4.9.3.3h.3v-.6l-.2-1.5.5-2.6.1-.9h.3l.3.3.3-.3h.3l.3.3.3-.3.9.1 10-.1zM61.1 45.6l-.1 2h.3l.1-2h-.3zm9.7.3h.3v.3l-5.3.5-.3-.3v-.3l2.6-.1v.3l2.7-.4zm10.5-13.3c.4 0 .6.6.6 1.7h.6l.9-.6.3.3-1.5 16.3c1.2-.6 4.5-1.3 9.9-2h.3v.3c-6.8 1.1-10.2 2-10.2 2.6l3.2-.9v.3l5.5-1.2v.3l.3-.3h.3l.3.3 1.5-.3h1.2l2 .3v.3c0 .6-1.5 1.1-4.4 1.5v.3l.3-.3h.3l2 .3.3-.3v.9l-9.6 2.3-6.1 2.3h-.9l-1.2-1.5H77v-.3c0-.5.4-.8 1.2-.9v-.9l-.9-1.2 1.2-13.1h.3v1.2l-.3 2h.5l-.6 3.8.3.3-.3 1.2v1.5h.3l1.2-15.5c.4 0 .6-.3.6-.9l.3-.3h.5v.2zm24-.3c.5.4 2.2.6 4.9.6v.3h-2v.3c2.4 0 4 .6 4.6 1.7v.6h-1.5v.3l2 .3v.3h-1.8v.3c.6 0 .9.2.8.6-3.5 0-6.5 1.3-9.3 3.8v.3c3.8 1 6.7 3.2 8.9 6.7v.3c-.7 2.5-2.7 4.9-5.9 7l-1.8.3v.3h.6c0 .5-1.8 1.1-5.4 1.7v-.6h1.5v-.3c-1.2 0-2.4-.7-3.4-2-.9-.5-1.4-1.5-1.3-2.9l.9-.6.8.6h.6c5.5-.9 8.3-2.6 8.5-5.3-2.3-1.2-3.8-1.8-4.6-1.8v.3l-2.9-1.2.3.3v.6c-2.4-1.8-3.6-3.1-3.5-4.1l2.3-4.1 1.5-1.2v.6l5.2-4zm-4 7.9v.3l5.1-3.2 2.4-.6v-.6h-.6c-3 1.1-5.4 2.5-6.9 4.1zm1.6 11.9h.3l.6-.6h-.3l-.6.6zm5.2 0l-1.3 1.5h.3l1.3-1.5h-.3zm-3.6 2.4v.3h.3l1.2-.9-1.5.6zm-3.3 2v.3h1.2l1.5-.3v-.3h-.3l-2.4.3zM129 32.8l1.4 1c-.4 1.7-1.1 2.5-2.2 2.5l-7.6.3v.6l1.4.1 1.8-.2.3.3h.3l2.1-.2h.6v.3l-6.8.7-.5 3.8h.3l7.9-.6.3.3v.3h-.6v.3l2 .4v.3c-.4 1.1-3.2 2-8.4 2.6l-2.9.1.3.3-1.4 3.7h-.3l.2-2.6h-.3l-.6 4.1c5.8-.8 9.9-1.1 12.3-.9l1.4.4v.6h-.6l.3.3-.1.9c-.6.7-1.7 1-3.6.9v.3l2.3.1v.6l-13.6 2h-.3c-1-.2-1.4-.5-1.4-1l.1-.9.8-3.2-.3-.3h.6l-.1 1.5h.3c.1-1 .3-1.4.7-1.4l-.3-.3.2-2.9h-.6l-.4 1.4.3-.3h.3l-.1 1.8h-.3l.1-.9h-.3v.6h-.3v-.6l.9-4.9h-.3l.7-1.4-.3-.3V43l.6-4.9.3.3h.3v-.6l-.2-1.5.5-2.6.1-.9h.3l.3.3.3-.3h.3l.3.3.3-.3.9.1 10-.1zm-14.6 12.8l-.1 2h.3l.1-2h-.3zm9.6.3h.3v.3l-5.3.5-.3-.3v-.3l2.6-.1v.3l2.7-.4zm6-13.2c2.3 0 3.5.8 3.5 2.3h.3v-.9h.6c.8 2.3 1.5 5.4 2 9.3h-.3l.3.3v2.6h.6l-.3.3v1.5h.3c.8-1.9 2.3-4.6 4.7-7.9l.3.3.6-.9h-.3l-.6.6V40l3.2-3.5h.6l1.2 1.2-1.5 1.8h.9c0-.6.6-1.3 1.8-2v.9c-.8.1-1.2.4-1.2.9h.6c0-.6.3-.9.9-.9v.9c-1 .6-2.4 2.3-4.4 5.3l-6.1 11.1h-.7l-.3-.3c-.6 0-.9.4-.9 1.2h-.6c-1.4 0-2-.7-2-2l.3-.9-.6.6v.9l.3.3v.3l-.3.3h-.6l-.3-1.5.3-.9h-.3l.3-.3v-1.8c-.2-10.7-.9-16-2-16l.3-.9-.6-2zm14 3.5v.3l-1.2 1.2h-.3c.5-.9 1-1.4 1.5-1.5zm-2.1 2v.3l-2.6 3.5v-.3c.5-1.1 1.3-2.2 2.6-3.5zm2.4 1.8l-.9 1.5h.3l.9-1.2V40h-.3zm-11.7 1.4v1.5h.3v-1.5h-.3zm5.8 1.5h.3v.9l-.3.3h-.3v-.3l.3-.9zm-5.5.9V47h.3v-3.2h-.3zm5.2.3v.3l-.9 1.2v-.3l.9-1.2zm.6 5.8v.3l.9-.9V49l-.9.9zm-1.4 2.3l.3.3h.3l.6-1.8c-.5.1-.9.6-1.2 1.5zm17.5-2.9l1.1 1.1v.3l.6.6v.3h-.7v.3h.7v.3c-1.3.3-1.9.7-2 1.1h.7c-.1 1.7-1.6 2.5-4.5 2.5l-1-.3v-1.4c.7.3 1.2.3 1.3 0l-1.5-.8 1-2-.9-.8c.1-1 1.8-1.4 5.2-1.2zM169.3 33h.3c2.8 0 5 1.2 6.4 3.5v.3h-.6l.3.3v.3c-1.2-.1-1.7-.3-1.7-.6-4.5 0-7.9 2.3-10.2 7l-.6 2 .9 5.5h.9c2.4 0 5.1-1.8 8.2-5.3h.3v.3c-2.1 3-4.4 4.7-7 5.3v.4h.3c2 0 4.6-1.7 7.6-5.2l.9 1.2v.9c0 .6-1.5 2.1-4.4 4.4l-.3.3h-.3v.4c3.3-1.6 5-2.8 5-3.5h.6v.3c-2.4 2.9-5.3 4.4-8.5 4.4v.3h1.5l1.2-.3h.3v.3l-3.5.6c-1.5 0-3-1.1-4.7-3.2v.3l1.5 2.3v.3h-.9c-1.8-1.2-2.9-2.8-3.2-4.7l-.3-3.8c0-4.9 1-8 2.9-9.3v.3l-1.7 2.9v.3h.3c0-1.8 2.4-4.5 7.3-7.9l-.9.3h-.3v-.3l2.4-.6zm-3.2 1.2h.3v.3l-2 .9c-.1-.4.5-.8 1.7-1.2zm-2.7 2v.3L162 38v-.3l1.4-1.5zm-3.5 14v.9l.3 1.2h.3V52l-.3-1.7h-.3v-.1zm30-17.4c2.3 0 4.4.7 6.4 2l-.3.3v.3l1.2 1.8h-.6l-.3-.3h-.3l.9 6.4h.3c0-1 .2-1.5.6-1.5V43c0 1.1-1 3.6-2.9 7.6h.3c-1.4 1.9-3.4 3.6-6.1 5.3l-1.5.3h-.3c-4.6 0-7.5-1.9-8.7-5.5l-1.2-1.7.3-.3-.3-2v-.6c0-1.6 1.6-4.4 4.7-8.5v.3c-1.4 1.9-2.6 4.1-3.5 6.4v.3h.3c.7-2.9 3.3-6.4 7.9-10.8l-2 1.2h-.3c-.2-1.1 1.7-1.8 5.4-2.2zm-1.5 4.9l-.3-.3v.3l.3.3-2 1.7c-1.6 0-3.2 2.7-4.7 8.2 0 1.6.9 2.9 2.6 4.1h.3c2.1 0 4.6-2.2 7.3-6.7 1-2.1 1.5-3.7 1.5-4.7v-2.3c0-.5-1-.9-2.9-1.2h-.3l-.3.3h-.3v-.3l-1.2.6zm8.4.9h.6V40h-.6v-1.4zM182 41.8l-.9 1.8h.3l.9-1.8h-.3zm11.4 1.7l-1.2 2.9h.9l.9-2-.3-.9h-.3zm2 1.2l-.3.9v.6h.3l.3-1.2v-.3h-.3zm-17.2 1.2v2.3h.3v-2.3h-.3zm13.7.9l-1.2 1.5h.3l1.2-1.5h-.3zm-9.3 6.4v.3l1.5.9V54l-1.5-.8zm31.5-20.8h.6v.6l-.7 1.2-.3-.3h-.3l.7-1.5zm-10.8.3h.6l.8.6V33c1 .2 1.8.7 2.2 1.5.7 0 1.4 2 2.1 6.1l4-6.1.3-.3h.3v.3l-4.1 7.3h.6c3.1-6 4.9-9 5.5-9l.8.6v-.3c.8 0 1.8 1 3 2.9l-.1.9-.3.3.3.3-.1 1.2h-.6l.4 1.8-.6 3.2-.1.9.3.3v.3l-.6.6.5.6-.6.6.5.6-.3.3h-.3l.3.3-.7 8.2c-.6 0-.9.3-.9.9-.6 0-.9.5-1 1.5h-.9l-1.6-1.2.4-1.7-.4-1.8 2-12.5c-1 1-2 3.2-3.2 6.4-.1 1.1-.6 1.9-1.4 2.3h-.3V50l.3-.3v-.3l-.3-.3.6-.6.1-.9h-.6c-.1 1.1-.5 1.8-1.4 2.3h-.3l-1.3-1.5c-.5 0-.8-.9-.9-2.6-1-2-1.4-3.5-1.4-4.4h-.3l-.6 3.5-.2 2.3-.4.9.2 1.5-.6 6.4c-.4 0-.6.3-.7.9l-1.6 1.5h-.3l-2-.9.4-1.5v-3.2l.1-1.5.3-.3-.3-.3v-.3c.3-3 .8-6.2 1.7-9.6h.3l-.3-.3v-.3l.4-1.2-.2-1.2v-.3h.3l-.1.6h.3l.1-.9-.3-.3 1.1-2 .1-.9-.3.3-.3-.3.1-.9h.3l.3.3h.3l.6-.7zm7.3 13.1l.2.9h.3c.1-1 1.3-3.7 3.6-7.9l.4-1.5c-1.4 1.9-3 4.7-4.5 8.5zm5.2-6.1l-.3.3-.6 7.3h.3l.8-6.1-.3-.3h.3l-.3-.3v-.3l.3-.3v-.3h-.2zm-1.9 15.1l-.2 2.3h.3l.4-1.5-.2-.9h-.3v.1z"/><path class="ist1" d="M172.1 0h-20.8c-.3 0-.5.2-.5.5s.2.5.5.5h.5v20.3c0 .3.2.5.5.5s.5-.2.5-.5v-.5h18v.5c0 .3.2.5.5.5s.5-.2.5-.5V.9h.5c.3 0 .5-.2.5-.5-.2-.2-.4-.4-.7-.4zm-1.4 19.9h-18v-5.7h18v5.7zm0-6.6h-18V7.6h18v5.7zm0-6.7h-18V.9h18v5.7z"/><path class="ist1" d="M162.6 8.5h-.9c-.3 0-.5.2-.5.5s.2.5.5.5h.9c.3 0 .5-.2.5-.5s-.2-.5-.5-.5zm0-6.6h-.9c-.3 0-.5.2-.5.5s.2.5.5.5h.9c.3 0 .5-.2.5-.5s-.2-.5-.5-.5zm0 13.3h-.9c-.3 0-.5.2-.5.5s.2.5.5.5h.9c.3 0 .5-.2.5-.5s-.2-.5-.5-.5zm-90.2-.3c0-.1 0-.1 0 0l-4.1-8.2V1.4C68.4.6 67.8 0 67 0H57c-.8 0-1.4.6-1.4 1.4v5.3l-4 8.1v.1c-.3.2-.5.6-.5 1v5.4c0 .3.2.5.5.5h1.8c.3 0 .5-.2.5-.5V20h16.4v1.4c0 .3.2.5.5.5h1.8c.3 0 .5-.2.5-.5V16c-.2-.5-.4-.9-.7-1.1zM56.6 1.4c0-.3.2-.5.5-.5h10c.2 0 .5.2.5.5v5h-1.4l-.2-.9c-.2-1.1-1.1-1.8-2.2-1.8h-3.4c-1.1 0-2 .8-2.2 1.8l-.2.9h-1.4v-5zm8.3 6.3c-.3.3-.6.5-1.1.5h-3.7c-.4 0-.8-.2-1.1-.5-.3-.3-.4-.7-.3-1.1l.3-1c.1-.6.7-1.1 1.3-1.1h3.4c.6 0 1.2.5 1.3 1.1l.2.9c.1.4 0 .9-.3 1.2zm-8.5-.4h1.5c.1.4.2.7.5 1 .4.5 1.1.8 1.8.8h3.7c.7 0 1.3-.3 1.8-.8.2-.3.4-.6.5-1h1.5l3.6 7.3H52.8l3.6-7.3zm-3.5 13.6H52V20h.9v.9zm19.1 0h-.9V20h.9v.9zm0-1.8H52v-3.2c0-.3.2-.5.5-.5h19.1c.2 0 .5.2.5.5v3.2H72zm34.9-12.7h-.5V4.1c0-1.3-1-2.3-2.3-2.3H90.6c-1.3 0-2.3 1-2.3 2.3v2.3h-.5c-.8 0-1.4.6-1.4 1.4v9.1c0 .8.6 1.4 1.4 1.4h.5v1.4c0 .3.2.5.5.5h3.6c.3 0 .5-.2.5-.5v-1.4h9.1v1.4c0 .3.2.5.5.5h3.6c.3 0 .5-.2.5-.5v-1.4h.5c.8 0 1.4-.6 1.4-1.4V7.7c-.2-.7-.8-1.3-1.6-1.3zM89.2 4.1c0-.8.6-1.4 1.4-1.4h13.6c.8 0 1.4.6 1.4 1.4v2.3h-.5c-.8 0-1.4.6-1.4 1.4V11H91V7.7c0-.8-.6-1.4-1.4-1.4h-.5V4.1h.1zm14.5 7.7v1.8H91v-1.8h12.7zm-11.8 7.3h-2.7v-.9h2.7v.9zm13.6 0h-2.7v-.9h2.7v.9zm1.9-2.3c0 .3-.2.5-.5.5h-19c-.3 0-.5-.2-.5-.5V7.7c0-.3.2-.5.5-.5h1.8c.3 0 .5.2.5.5V14c0 .3.2.5.5.5h13.6c.3 0 .5-.2.5-.5V7.7c0-.3.2-.5.5-.5h1.8c.3 0 .5.2.5.5v9.1h-.2zM135 0h-10.9c-1.3 0-2.3 1-2.3 2.3v18.2c0 .3.2.5.5.5h.5v.5c0 .3.2.5.5.5s.5-.2.5-.5V21h11.8v.5c0 .3.2.5.5.5s.5-.2.5-.5V21h.5c.3 0 .5-.2.5-.5V2.3C137.3 1 136.2 0 135 0zm-5.9 20h-6.4V2.3c0-.8.6-1.4 1.4-1.4h5V20zm7.2 0H130v-5.5h6.4V20h-.1zm0-6.4H130V8.2h6.4v5.4h-.1zm0-6.3H130V.9h5c.8 0 1.4.6 1.4 1.4v5h-.1z"/><path class="ist1" d="M127.7 9.1c-.3 0-.5.2-.5.5v.9c0 .3.2.5.5.5s.5-.2.5-.5v-1c0-.2-.2-.4-.5-.4z"/><path class="ist2" d="M77.6 72.8c-3.2 0-4.9-1.5-6.3-2.8-1.3-1.2-2.3-2.1-4.6-2.1-2.2 0-3.3.9-4.6 2.1-1.5 1.3-3.1 2.8-6.3 2.8s-4.9-1.5-6.3-2.8c-1.3-1.2-2.3-2.1-4.6-2.1-2.2 0-3.3.9-4.6 2.1-1.5 1.3-3.1 2.8-6.3 2.8-3.2 0-4.9-1.5-6.3-2.8-1.3-1.2-2.3-2.1-4.6-2.1-2.2 0-3.3.9-4.6 2.1-1.5 1.3-3.1 2.8-6.3 2.8-3.2 0-4.9-1.5-6.3-2.8-1.3-1.2-2.3-2.1-4.6-2.1-.7 0-1.3-.6-1.3-1.3 0-.7.6-1.3 1.3-1.3 3.2 0 4.9 1.5 6.3 2.8 1.3 1.2 2.3 2.1 4.6 2.1 2.2 0 3.3-.9 4.6-2.1 1.5-1.3 3.1-2.8 6.3-2.8 3.2 0 4.9 1.5 6.3 2.8 1.3 1.2 2.3 2.1 4.6 2.1 2.2 0 3.3-.9 4.6-2.1 1.5-1.3 3.1-2.8 6.3-2.8 3.2 0 4.9 1.5 6.3 2.8 1.3 1.2 2.3 2.1 4.6 2.1 2.2 0 3.3-.9 4.6-2.1 1.5-1.3 3.1-2.8 6.3-2.8 3.2 0 4.9 1.5 6.3 2.8 1.3 1.2 2.3 2.1 4.6 2.1 2.2 0 3.3-.9 4.6-2.1 1.5-1.3 3.1-2.8 6.3-2.8.7 0 1.3.6 1.3 1.3 0 .7-.6 1.3-1.3 1.3-2.2 0-3.3.9-4.6 2.1-1.5 1.3-3.1 2.8-6.3 2.8z"/><path class="ist2" d="M142.5 72.8c-3.2 0-4.9-1.5-6.3-2.8-1.3-1.2-2.3-2.1-4.6-2.1s-3.3.9-4.6 2.1c-1.5 1.3-3.1 2.8-6.3 2.8-3.2 0-4.9-1.5-6.3-2.8-1.3-1.2-2.3-2.1-4.6-2.1-2.2 0-3.3.9-4.6 2.1-1.5 1.3-3.1 2.8-6.3 2.8-3.2 0-4.9-1.5-6.3-2.8-1.3-1.2-2.3-2.1-4.6-2.1-2.2 0-3.3.9-4.6 2.1-1.5 1.3-3.1 2.8-6.3 2.8-3.2 0-4.9-1.5-6.3-2.8-1.3-1.2-2.3-2.1-4.6-2.1-.7 0-1.3-.6-1.3-1.3 0-.7.6-1.3 1.3-1.3 3.2 0 4.9 1.5 6.3 2.8 1.3 1.2 2.3 2.1 4.6 2.1 2.2 0 3.3-.9 4.6-2.1 1.5-1.3 3.1-2.8 6.3-2.8 3.2 0 4.9 1.5 6.3 2.8 1.3 1.2 2.3 2.1 4.6 2.1 2.2 0 3.3-.9 4.6-2.1 1.5-1.3 3.1-2.8 6.3-2.8 3.2 0 4.9 1.5 6.3 2.8 1.3 1.2 2.3 2.1 4.6 2.1 2.2 0 3.3-.9 4.6-2.1 1.5-1.3 3.1-2.8 6.3-2.8s4.9 1.5 6.3 2.8c1.3 1.2 2.3 2.1 4.6 2.1 2.2 0 3.3-.9 4.6-2.1 1.5-1.3 3.1-2.8 6.3-2.8.7 0 1.3.6 1.3 1.3 0 .7-.6 1.3-1.3 1.3-2.2 0-3.3.9-4.6 2.1-1.4 1.3-3.1 2.8-6.3 2.8z"/><path class="ist2" d="M208.1 72.8c-3.2 0-4.9-1.5-6.3-2.8-1.3-1.2-2.3-2.1-4.6-2.1-2.2 0-3.3.9-4.6 2.1-1.5 1.3-3.1 2.8-6.3 2.8-3.2 0-4.9-1.5-6.3-2.8-1.3-1.2-2.3-2.1-4.6-2.1-2.2 0-3.3.9-4.6 2.1-1.5 1.3-3.1 2.8-6.3 2.8-3.2 0-4.9-1.5-6.3-2.8-1.3-1.2-2.3-2.1-4.6-2.1-2.2 0-3.3.9-4.6 2.1-1.5 1.3-3.1 2.8-6.3 2.8-3.2 0-4.9-1.5-6.3-2.8-1.3-1.2-2.3-2.1-4.6-2.1-.7 0-1.3-.6-1.3-1.3 0-.7.6-1.3 1.3-1.3 3.2 0 4.9 1.5 6.3 2.8 1.3 1.2 2.3 2.1 4.6 2.1 2.2 0 3.3-.9 4.6-2.1 1.5-1.3 3.1-2.8 6.3-2.8 3.2 0 4.9 1.5 6.3 2.8 1.3 1.2 2.3 2.1 4.6 2.1 2.2 0 3.3-.9 4.6-2.1 1.5-1.3 3.1-2.8 6.3-2.8 3.2 0 4.9 1.5 6.3 2.8 1.3 1.2 2.3 2.1 4.6 2.1 2.2 0 3.3-.9 4.6-2.1 1.5-1.3 3.1-2.8 6.3-2.8 3.2 0 4.9 1.5 6.3 2.8 1.3 1.2 2.3 2.1 4.6 2.1 2.2 0 3.3-.9 4.6-2.1 1.5-1.3 3.1-2.8 6.3-2.8.7 0 1.3.6 1.3 1.3 0 .7-.6 1.3-1.3 1.3-2.2 0-3.3.9-4.6 2.1-1.4 1.3-3 2.8-6.3 2.8z"/><text transform="translate(2.266 89.848)" class="ist0" letter-spacing="3" font-size="10" font-family="BerlingskeSerifCn-Regular" font-weight="600">ИНТЕРНЕТ-МАГАЗИН МЕБЕЛИ</text></symbol><symbol viewBox="0 0 428.1 245.9" id="vk" xmlns="http://www.w3.org/2000/svg"><path d="M4.1 37.2C.5 27.8-4.1 18 6.8 12.7l66.4-.9c9.6.3 14 7.4 19.1 17.3 14.9 28.7 30.4 57.3 49.1 83.6 6.1 8.6 16.4 11.9 24.5-1.8l2.7-55.5c-3-21.5-10.5-34.2-23.6-35.5-7.5-7.3-2.1-13.3 14.7-16.5 26.7-5.7 50-3.1 70.5-.5C247.5 4 250 15.7 249.7 29.1c-.6 24.5-1.1 49.1-1.1 73.6 5.1 24.9 18.7 14.9 27.7 4.1 16.1-22.9 30.1-45.2 41.8-70.3 12.1-25.8 15.4-23.9 23.9-24 20.3-.1 42.7-1.1 58.9-.5 33.8-2 29.9 13 20.4 28.9-16.4 27.7-37.5 52.7-56.3 79.1-11.4 15.5-11.2 25.2.9 33.6 17.9 19.7 37.3 38.1 53.6 59.1 17.7 22.9 4.7 29.2-11.8 30.9h-59.1c-16.8.3-32-3.9-42.7-21.8-24.7-32.7-43.1-41.7-50.5-23.3-3.2 8.1-5.9 19-5.8 29.6.1 14.8-8.8 16-20.9 16.4-13 0-26.5 3.2-39.1 0-44.6-11.3-87.4-32.1-129.1-103.6C41.7 110 22.9 76.2 4.1 37.2z"/></symbol></svg>