<svg xmlns="http://www.w3.org/2000/svg" viewBox="0 0 511.6 438.5"><path d="M475.4 35.4C451.2 11.8 417.8 0 375.2 0c-11.8 0-23.8 2-36.1 6.1s-23.7 9.6-34.3 16.6c-10.6 6.9-19.6 13.5-27.3 19.6-7.6 6.1-14.8 12.6-21.7 19.4-6.9-6.8-14.1-13.3-21.7-19.4-7.6-6.1-16.7-12.6-27.3-19.6-10.6-7-22-12.5-34.3-16.6C160.3 2 148.3 0 136.5 0c-42.6 0-76 11.8-100.2 35.4C12.1 59 0 91.7 0 133.6c0 12.8 2.2 25.9 6.7 39.4s9.6 25 15.3 34.5c5.7 9.5 12.2 18.8 19.4 27.8 7.2 9 12.5 15.3 15.8 18.7 3.3 3.4 5.9 5.9 7.9 7.4l178.2 171.9c3.4 3.4 7.6 5.1 12.6 5.1 4.9 0 9.1-1.7 12.6-5.1L446.4 262c43.6-43.6 65.4-86.4 65.4-128.5-.2-41.8-12.3-74.5-36.4-98.1zm-54 199.9L255.8 394.8 89.9 235c-35.6-35.6-53.4-69.4-53.4-101.4 0-15.4 2-29 6.1-40.8C46.8 81 52 71.6 58.4 64.7c6.4-6.9 14.1-12.6 23.3-17 9.1-4.4 18.1-7.3 26.8-8.8 8.8-1.5 18.1-2.3 28-2.3 9.9 0 20.6 2.4 32 7.3 11.4 4.9 21.9 10.9 31.5 18.3 9.6 7.3 17.8 14.2 24.7 20.6 6.9 6.4 12.6 12.2 17.1 17.6 3.4 4.2 8.1 6.3 14 6.3s10.6-2.1 14-6.3c4.6-5.3 10.3-11.2 17.1-17.6 6.9-6.4 15.1-13.2 24.7-20.6 9.6-7.3 20.1-13.4 31.6-18.3 11.4-4.9 22.1-7.3 32-7.3s19.2.8 28 2.3c8.8 1.5 17.7 4.5 26.8 8.8 9.1 4.4 16.9 10 23.3 17 6.4 6.9 11.6 16.3 15.7 28.1s6.1 25.4 6.1 40.8c0 32-17.9 65.9-53.7 101.7z"/></svg>