<svg xmlns="http://www.w3.org/2000/svg" viewBox="0 0 511.6 438.5"><path d="M475.4 35.4C451.2 11.8 417.8 0 375.2 0c-11.8 0-23.8 2-36.1 6.1s-23.7 9.6-34.3 16.6c-10.6 6.9-19.6 13.5-27.3 19.6-7.6 6.1-14.8 12.6-21.7 19.4-6.9-6.8-14.1-13.3-21.7-19.4-7.6-6.1-16.7-12.6-27.3-19.6-10.6-7-22-12.5-34.3-16.6C160.3 2 148.3 0 136.5 0c-42.6 0-76 11.8-100.2 35.4C12.1 59 0 91.7 0 133.6c0 12.8 2.2 25.9 6.7 39.4s9.6 25 15.3 34.5c5.7 9.5 12.2 18.8 19.4 27.8 7.2 9 12.5 15.3 15.8 18.7 3.3 3.4 5.9 5.9 7.9 7.4l178.2 171.9c3.4 3.4 7.6 5.1 12.6 5.1 4.9 0 9.1-1.7 12.6-5.1L446.4 262c43.6-43.6 65.4-86.4 65.4-128.5-.2-41.8-12.3-74.5-36.4-98.1z"/></svg>