<svg xmlns="http://www.w3.org/2000/svg" viewBox="0 0 440.8 440.8"><path d="M306.7 425.4H129.1c-64.7 0-117.3-52.6-117.3-117.3V130.5c0-64.7 52.6-117.3 117.3-117.3h177.6c64.7 0 117.3 52.6 117.3 117.3v177.6c0 64.7-52.6 117.3-117.3 117.3zM129.1 48.6c-45.2 0-82 36.8-82 82v177.6c0 45.2 36.8 82 82 82h177.6c45.2 0 82-36.8 82-82V130.5c0-45.2-36.8-82-82-82H129.1z"/><path d="M217.9 324.9c-58.2 0-105.5-47.3-105.5-105.5s47.3-105.5 105.5-105.5 105.5 47.3 105.5 105.5c0 58.1-47.3 105.5-105.5 105.5zm0-175.8c-38.7 0-70.2 31.5-70.2 70.2s31.5 70.2 70.2 70.2 70.2-31.5 70.2-70.2-31.5-70.2-70.2-70.2zm135.4-41.4c0 14-11.4 25.4-25.4 25.4-14 0-25.4-11.4-25.4-25.4 0-14 11.4-25.4 25.4-25.4 14.1.1 25.4 11.4 25.4 25.4z"/></svg>