<svg version="1.1" id="Layer_1" xmlns="http://www.w3.org/2000/svg" x="0" y="0" viewBox="0 0 224.7 93.4" xml:space="preserve"><style>.st0{fill:#2e5366}.st1{fill-rule:evenodd;clip-rule:evenodd;fill:#0d1014}.st2{fill:#99a5aa}</style><path class="st0" d="M17.8 32.4h.6v.6l-.7 1.2-.3-.3h-.3l.7-1.5zM7 32.7h.6l.8.6V33c1 .2 1.8.7 2.2 1.5.7 0 1.4 2 2.1 6.1l4-6.1.3-.3h.3v.3l-4.1 7.3h.6c3.1-6 4.9-9 5.5-9l.8.6v-.3c.8 0 1.8 1 3 2.9l-.1.8-.3.3.3.3-.1 1.2h-.6l.4 1.8-.6 3.2-.1.7.3.3v.3l-.6.6.5.6-.6.6.5.6-.3.3h-.3l.3.3L21 56c-.6 0-.9.3-.9.9-.6 0-.9.5-1 1.5h-.9l-1.6-1.2.4-1.7-.4-1.8 2-12.5c-1 1-2 3.2-3.2 6.4-.1 1.1-.6 1.9-1.4 2.3h-.3v-.3l.3-.3V49l-.3-.3.6-.6.1-.9h-.6c-.1 1.1-.5 1.8-1.4 2.3h-.3L10.8 48c-.5 0-.8-.9-.9-2.6-1-2-1.4-3.5-1.4-4.4h-.2l-.6 3.5-.2 2.5-.4.9.2 1.5-.6 6.4c-.4 0-.6.3-.7.9L4.5 58h-.3l-2-.9.4-1.5v-3.2l.1-1.5.3-.3-.3-.3V50c.3-3 .8-6.2 1.7-9.6h.3l-.3-.3v-.3l.6-1-.2-1.2v-.3h.3l-.1.6h.3l.1-.9-.3-.3 1.1-2 .1-.9-.3.3h-.3l-.3-.3.1-.8h.3l.3.3h.3l.6-.6zm7.3 13.1l.2.9h.3c.1-1 1.3-3.7 3.6-7.9l.4-1.5c-1.4 1.9-2.9 4.7-4.5 8.5zm5.2-6.1l-.3.3-.6 7.3h.3l.8-6.1-.3-.3h.3l-.3-.3v-.3l.3-.3v-.3h-.2zm-1.9 15.1l-.2 2.3h.3l.4-1.5-.2-.9h-.3v.1zm21.6-22l1.4 1c-.4 1.7-1.1 2.5-2.2 2.5l-7.6.3v.6l1.4.1 1.8-.2.3.3h.3l2.1-.2h.6v.3l-6.8.7L30 42h.3l7.9-.6.3.3v.3h-.6v.3l2 .4v.3c-.4 1.1-3.2 2-8.4 2.6l-2.9.1.3.3-1.4 3.7h-.3l.2-2.6h-.3l-.6 4.1c5.8-.8 9.9-1.1 12.3-.9l1.4.4v.6h-.6l.3.3-.1.9c-.6.7-1.7 1-3.6.9v.3l2.3.1v.6l-13.6 2h-.3c-1-.2-1.4-.5-1.4-1l.1-.9.8-3.2-.3-.3h.6l-.1 1.5h.3c.1-1 .3-1.4.7-1.4l-.3-.3.2-2.9h-.6l-.6 1.4.3-.3h.3l-.1 1.8h-.3l.1-.9H24v.6h-.3v-.6l.9-4.9h-.3l.7-1.4-.3-.3V43l.6-4.9.3.3h.3v-.6l-.2-1.5.5-2.6.1-.9h.3l.3.3.3-.3h.3l.3.3.3-.3.9.1 10.2-.1zM24.6 45.6l-.1 2h.3l.1-2h-.3zm9.6.3h.3v.3l-5.3.5-.3-.3v-.3l2.6-.1v.3l2.7-.4zm17.9-13.8l1.4.5v.3l-1.5-.3.1-.5zm-5.6-.1l.8.7 2.7-.3.2.3h.3l.9-.2c3.3.3 5.6 2 7.1 4.9.4 0 .5.5.4 1.5l-.2 2-.6-.1v-.3l.4-.8-.3-.3.3-.3-.3-.3-.6-.1c-.1 1.1-1.2 2.3-3.3 3.4v.3h.3c.7.1 1.8-.3 3.1-1.1l-.1.6-1.6 1.6c1.1.1 2.6 1.9 4.7 5.2-.2 2.1-3.4 4.3-9.5 6.6-2.6 1.3-4.6 1.8-6.1 1.7l-.5-.7h-.3c-.1.6-.5.8-1.3.7-.1.6-.3.9-.7.8-.4 0-.5-.7-.3-2.1h-.3l-.5 1.4h-.3c.2-1.9 0-2.9-.6-3l-.2-1.2.3-.3-.3-.3L42.9 40l.1-.1h.3l-.3-.3.8-4.3V35l-.4-2.1h.3c1.3-.7 2.2-.9 2.8-.9zm6.9 3.7v.3l2.3.5c0-.4-.2-.6-.8-.7l-1.5-.1zm-5.6 2.9l.1 2.1 2.7-.3-.1.6 4.3-1.9v.3l-2.2 1.5c2.4-.7 3.7-1.8 3.9-3.4l-.6-.1c-.1 1-.4 1.4-1 1.4l.1-.6h-.3l.4-.8.2.3h.3v-.3c-.7-.7-1.8-1.1-3.4-1.3-2.7-.2-4.2.6-4.4 2.5zm6.8-.4v.3l-.6.5h-.3l.9-.8zm-1.3 6.9v.3l2.9.6h.3v-.3l-1.1-.4-2.1-.2zm-6.6 1l-.9 5.2.3.3h.3c1.4.2 4.6-1.1 9.5-3.7l.6-.5c0-.8-.8-1.3-2.2-1.4l-2.3-.2-5.3.3zm10.4 1.2l-.7 1.1 1.3-.7-.3-.3-.3-.1zm2 1.4c-.1.6-2 2.1-5.8 4.4 4.3-1.7 6.5-3 6.6-4h-.3l-.2-.3-.3-.1zm16.6-15.9l1.4 1c-.4 1.7-1.1 2.5-2.2 2.5l-7.6.3v.6l1.4.1 1.8-.2.3.3h.3l2.1-.2h.6v.3l-6.8.7-.5 3.8h.3l7.9-.6.3.3v.3h-.6v.3l2 .4v.3c-.4 1.1-3.2 2-8.4 2.6l-2.9.1.3.3-1.4 3.7h-.3l.2-2.6h-.3l-.6 4.1c5.8-.8 9.9-1.1 12.3-.9l1.4.4v.6h-.6l.3.3-.1.9c-.6.7-1.7 1-3.6.9v.3l2.3.1v.6l-13.6 2h-.3c-1-.2-1.4-.5-1.4-1l.1-.9.8-3.2-.3-.3h.6l-.1 1.5h.3c.1-1 .3-1.4.7-1.4l-.3-.3.2-2.9h-.6l-.4 1.4.3-.3h.3l-.1 1.8h-.3l.1-.9h-.3v.6h-.3v-.6l.9-4.9H61l.7-1.4-.3-.3V43l.6-4.9.3.3h.3v-.6l-.2-1.5.5-2.6.1-.9h.3l.3.3.3-.3h.3l.3.3.3-.3.9.1 10-.1zM61.1 45.6l-.1 2h.3l.1-2h-.3zm9.7.3h.3v.3l-5.3.5-.3-.3v-.3l2.6-.1v.3l2.7-.4zm10.5-13.3c.4 0 .6.6.6 1.7h.6l.9-.6.3.3-1.5 16.3c1.2-.6 4.5-1.3 9.9-2h.3v.3c-6.8 1.1-10.2 2-10.2 2.6l3.2-.9v.3l5.5-1.2v.3l.3-.3h.3l.3.3 1.5-.3h1.2l2 .3v.3c0 .6-1.5 1.1-4.4 1.5v.3l.3-.3h.3l2 .3.3-.3v.9l-9.6 2.3-6.1 2.3h-.9l-1.2-1.5H77v-.3c0-.5.4-.8 1.2-.9v-.9l-.9-1.2 1.2-13.1h.3v1.2l-.3 2h.5l-.6 3.8.3.3-.3 1.2v1.5h.3l1.2-15.5c.4 0 .6-.3.6-.9l.3-.3h.5v.2zm24-.3c.5.4 2.2.6 4.9.6v.3h-2v.3c2.4 0 4 .6 4.6 1.7v.6h-1.5v.3l2 .3v.3h-1.8v.3c.6 0 .9.2.8.6-3.5 0-6.5 1.3-9.3 3.8v.3c3.8 1 6.7 3.2 8.9 6.7v.3c-.7 2.5-2.7 4.9-5.9 7l-1.8.3v.3h.6c0 .5-1.8 1.1-5.4 1.7v-.6h1.5v-.3c-1.2 0-2.4-.7-3.4-2-.9-.5-1.4-1.5-1.3-2.9l.9-.6.8.6h.6c5.5-.9 8.3-2.6 8.5-5.3-2.3-1.2-3.8-1.8-4.6-1.8v.3l-2.9-1.2.3.3v.6c-2.4-1.8-3.6-3.1-3.5-4.1l2.3-4.1 1.5-1.2v.6l5.2-4zm-4 7.9v.3l5.1-3.2 2.4-.6v-.6h-.6c-3 1.1-5.4 2.5-6.9 4.1zm1.6 11.9h.3l.6-.6h-.3l-.6.6zm5.2 0l-1.3 1.5h.3l1.3-1.5h-.3zm-3.6 2.4v.3h.3l1.2-.9-1.5.6zm-3.3 2v.3h1.2l1.5-.3v-.3h-.3l-2.4.3zM129 32.8l1.4 1c-.4 1.7-1.1 2.5-2.2 2.5l-7.6.3v.6l1.4.1 1.8-.2.3.3h.3l2.1-.2h.6v.3l-6.8.7-.5 3.8h.3l7.9-.6.3.3v.3h-.6v.3l2 .4v.3c-.4 1.1-3.2 2-8.4 2.6l-2.9.1.3.3-1.4 3.7h-.3l.2-2.6h-.3l-.6 4.1c5.8-.8 9.9-1.1 12.3-.9l1.4.4v.6h-.6l.3.3-.1.9c-.6.7-1.7 1-3.6.9v.3l2.3.1v.6l-13.6 2h-.3c-1-.2-1.4-.5-1.4-1l.1-.9.8-3.2-.3-.3h.6l-.1 1.5h.3c.1-1 .3-1.4.7-1.4l-.3-.3.2-2.9h-.6l-.4 1.4.3-.3h.3l-.1 1.8h-.3l.1-.9h-.3v.6h-.3v-.6l.9-4.9h-.3l.7-1.4-.3-.3V43l.6-4.9.3.3h.3v-.6l-.2-1.5.5-2.6.1-.9h.3l.3.3.3-.3h.3l.3.3.3-.3.9.1 10-.1zm-14.6 12.8l-.1 2h.3l.1-2h-.3zm9.6.3h.3v.3l-5.3.5-.3-.3v-.3l2.6-.1v.3l2.7-.4zm6-13.2c2.3 0 3.5.8 3.5 2.3h.3v-.9h.6c.8 2.3 1.5 5.4 2 9.3h-.3l.3.3v2.6h.6l-.3.3v1.5h.3c.8-1.9 2.3-4.6 4.7-7.9l.3.3.6-.9h-.3l-.6.6V40l3.2-3.5h.6l1.2 1.2-1.5 1.8h.9c0-.6.6-1.3 1.8-2v.9c-.8.1-1.2.4-1.2.9h.6c0-.6.3-.9.9-.9v.9c-1 .6-2.4 2.3-4.4 5.3l-6.1 11.1h-.7l-.3-.3c-.6 0-.9.4-.9 1.2h-.6c-1.4 0-2-.7-2-2l.3-.9-.6.6v.9l.3.3v.3l-.3.3h-.6l-.3-1.5.3-.9h-.3l.3-.3v-1.8c-.2-10.7-.9-16-2-16l.3-.9-.6-2zm14 3.5v.3l-1.2 1.2h-.3c.5-.9 1-1.4 1.5-1.5zm-2.1 2v.3l-2.6 3.5v-.3c.5-1.1 1.3-2.2 2.6-3.5zm2.4 1.8l-.9 1.5h.3l.9-1.2V40h-.3zm-11.7 1.4v1.5h.3v-1.5h-.3zm5.8 1.5h.3v.9l-.3.3h-.3v-.3l.3-.9zm-5.5.9V47h.3v-3.2h-.3zm5.2.3v.3l-.9 1.2v-.3l.9-1.2zm.6 5.8v.3l.9-.9V49l-.9.9zm-1.4 2.3l.3.3h.3l.6-1.8c-.5.1-.9.6-1.2 1.5zm17.5-2.9l1.1 1.1v.3l.6.6v.3h-.7v.3h.7v.3c-1.3.3-1.9.7-2 1.1h.7c-.1 1.7-1.6 2.5-4.5 2.5l-1-.3v-1.4c.7.3 1.2.3 1.3 0l-1.5-.8 1-2-.9-.8c.1-1 1.8-1.4 5.2-1.2zM169.3 33h.3c2.8 0 5 1.2 6.4 3.5v.3h-.6l.3.3v.3c-1.2-.1-1.7-.3-1.7-.6-4.5 0-7.9 2.3-10.2 7l-.6 2 .9 5.5h.9c2.4 0 5.1-1.8 8.2-5.3h.3v.3c-2.1 3-4.4 4.7-7 5.3v.4h.3c2 0 4.6-1.7 7.6-5.2l.9 1.2v.9c0 .6-1.5 2.1-4.4 4.4l-.3.3h-.3v.4c3.3-1.6 5-2.8 5-3.5h.6v.3c-2.4 2.9-5.3 4.4-8.5 4.4v.3h1.5l1.2-.3h.3v.3l-3.5.6c-1.5 0-3-1.1-4.7-3.2v.3l1.5 2.3v.3h-.9c-1.8-1.2-2.9-2.8-3.2-4.7l-.3-3.8c0-4.9 1-8 2.9-9.3v.3l-1.7 2.9v.3h.3c0-1.8 2.4-4.5 7.3-7.9l-.9.3h-.3v-.3l2.4-.6zm-3.2 1.2h.3v.3l-2 .9c-.1-.4.5-.8 1.7-1.2zm-2.7 2v.3L162 38v-.3l1.4-1.5zm-3.5 14v.9l.3 1.2h.3V52l-.3-1.7h-.3v-.1zm30-17.4c2.3 0 4.4.7 6.4 2l-.3.3v.3l1.2 1.8h-.6l-.3-.3h-.3l.9 6.4h.3c0-1 .2-1.5.6-1.5V43c0 1.1-1 3.6-2.9 7.6h.3c-1.4 1.9-3.4 3.6-6.1 5.3l-1.5.3h-.3c-4.6 0-7.5-1.9-8.7-5.5l-1.2-1.7.3-.3-.3-2v-.6c0-1.6 1.6-4.4 4.7-8.5v.3c-1.4 1.9-2.6 4.1-3.5 6.4v.3h.3c.7-2.9 3.3-6.4 7.9-10.8l-2 1.2h-.3c-.2-1.1 1.7-1.8 5.4-2.2zm-1.5 4.9l-.3-.3v.3l.3.3-2 1.7c-1.6 0-3.2 2.7-4.7 8.2 0 1.6.9 2.9 2.6 4.1h.3c2.1 0 4.6-2.2 7.3-6.7 1-2.1 1.5-3.7 1.5-4.7v-2.3c0-.5-1-.9-2.9-1.2h-.3l-.3.3h-.3v-.3l-1.2.6zm8.4.9h.6V40h-.6v-1.4zM182 41.8l-.9 1.8h.3l.9-1.8h-.3zm11.4 1.7l-1.2 2.9h.9l.9-2-.3-.9h-.3zm2 1.2l-.3.9v.6h.3l.3-1.2v-.3h-.3zm-17.2 1.2v2.3h.3v-2.3h-.3zm13.7.9l-1.2 1.5h.3l1.2-1.5h-.3zm-9.3 6.4v.3l1.5.9V54l-1.5-.8zm31.5-20.8h.6v.6l-.7 1.2-.3-.3h-.3l.7-1.5zm-10.8.3h.6l.8.6V33c1 .2 1.8.7 2.2 1.5.7 0 1.4 2 2.1 6.1l4-6.1.3-.3h.3v.3l-4.1 7.3h.6c3.1-6 4.9-9 5.5-9l.8.6v-.3c.8 0 1.8 1 3 2.9l-.1.9-.3.3.3.3-.1 1.2h-.6l.4 1.8-.6 3.2-.1.9.3.3v.3l-.6.6.5.6-.6.6.5.6-.3.3h-.3l.3.3-.7 8.2c-.6 0-.9.3-.9.9-.6 0-.9.5-1 1.5h-.9l-1.6-1.2.4-1.7-.4-1.8 2-12.5c-1 1-2 3.2-3.2 6.4-.1 1.1-.6 1.9-1.4 2.3h-.3V50l.3-.3v-.3l-.3-.3.6-.6.1-.9h-.6c-.1 1.1-.5 1.8-1.4 2.3h-.3l-1.3-1.5c-.5 0-.8-.9-.9-2.6-1-2-1.4-3.5-1.4-4.4h-.3l-.6 3.5-.2 2.3-.4.9.2 1.5-.6 6.4c-.4 0-.6.3-.7.9l-1.6 1.5h-.3l-2-.9.4-1.5v-3.2l.1-1.5.3-.3-.3-.3v-.3c.3-3 .8-6.2 1.7-9.6h.3l-.3-.3v-.3l.4-1.2-.2-1.2v-.3h.3l-.1.6h.3l.1-.9-.3-.3 1.1-2 .1-.9-.3.3-.3-.3.1-.9h.3l.3.3h.3l.6-.7zm7.3 13.1l.2.9h.3c.1-1 1.3-3.7 3.6-7.9l.4-1.5c-1.4 1.9-3 4.7-4.5 8.5zm5.2-6.1l-.3.3-.6 7.3h.3l.8-6.1-.3-.3h.3l-.3-.3v-.3l.3-.3v-.3h-.2zm-1.9 15.1l-.2 2.3h.3l.4-1.5-.2-.9h-.3v.1z"/><path class="st1" d="M172.1 0h-20.8c-.3 0-.5.2-.5.5s.2.5.5.5h.5v20.3c0 .3.2.5.5.5s.5-.2.5-.5v-.5h18v.5c0 .3.2.5.5.5s.5-.2.5-.5V.9h.5c.3 0 .5-.2.5-.5-.2-.2-.4-.4-.7-.4zm-1.4 19.9h-18v-5.7h18v5.7zm0-6.6h-18V7.6h18v5.7zm0-6.7h-18V.9h18v5.7z"/><path class="st1" d="M162.6 8.5h-.9c-.3 0-.5.2-.5.5s.2.5.5.5h.9c.3 0 .5-.2.5-.5s-.2-.5-.5-.5zm0-6.6h-.9c-.3 0-.5.2-.5.5s.2.5.5.5h.9c.3 0 .5-.2.5-.5s-.2-.5-.5-.5zm0 13.3h-.9c-.3 0-.5.2-.5.5s.2.5.5.5h.9c.3 0 .5-.2.5-.5s-.2-.5-.5-.5zm-90.2-.3c0-.1 0-.1 0 0l-4.1-8.2V1.4C68.4.6 67.8 0 67 0H57c-.8 0-1.4.6-1.4 1.4v5.3l-4 8.1v.1c-.3.2-.5.6-.5 1v5.4c0 .3.2.5.5.5h1.8c.3 0 .5-.2.5-.5V20h16.4v1.4c0 .3.2.5.5.5h1.8c.3 0 .5-.2.5-.5V16c-.2-.5-.4-.9-.7-1.1zM56.6 1.4c0-.3.2-.5.5-.5h10c.2 0 .5.2.5.5v5h-1.4l-.2-.9c-.2-1.1-1.1-1.8-2.2-1.8h-3.4c-1.1 0-2 .8-2.2 1.8l-.2.9h-1.4v-5zm8.3 6.3c-.3.3-.6.5-1.1.5h-3.7c-.4 0-.8-.2-1.1-.5-.3-.3-.4-.7-.3-1.1l.3-1c.1-.6.7-1.1 1.3-1.1h3.4c.6 0 1.2.5 1.3 1.1l.2.9c.1.4 0 .9-.3 1.2zm-8.5-.4h1.5c.1.4.2.7.5 1 .4.5 1.1.8 1.8.8h3.7c.7 0 1.3-.3 1.8-.8.2-.3.4-.6.5-1h1.5l3.6 7.3H52.8l3.6-7.3zm-3.5 13.6H52V20h.9v.9zm19.1 0h-.9V20h.9v.9zm0-1.8H52v-3.2c0-.3.2-.5.5-.5h19.1c.2 0 .5.2.5.5v3.2H72zm34.9-12.7h-.5V4.1c0-1.3-1-2.3-2.3-2.3H90.6c-1.3 0-2.3 1-2.3 2.3v2.3h-.5c-.8 0-1.4.6-1.4 1.4v9.1c0 .8.6 1.4 1.4 1.4h.5v1.4c0 .3.2.5.5.5h3.6c.3 0 .5-.2.5-.5v-1.4h9.1v1.4c0 .3.2.5.5.5h3.6c.3 0 .5-.2.5-.5v-1.4h.5c.8 0 1.4-.6 1.4-1.4V7.7c-.2-.7-.8-1.3-1.6-1.3zM89.2 4.1c0-.8.6-1.4 1.4-1.4h13.6c.8 0 1.4.6 1.4 1.4v2.3h-.5c-.8 0-1.4.6-1.4 1.4V11H91V7.7c0-.8-.6-1.4-1.4-1.4h-.5V4.1h.1zm14.5 7.7v1.8H91v-1.8h12.7zm-11.8 7.3h-2.7v-.9h2.7v.9zm13.6 0h-2.7v-.9h2.7v.9zm1.9-2.3c0 .3-.2.5-.5.5h-19c-.3 0-.5-.2-.5-.5V7.7c0-.3.2-.5.5-.5h1.8c.3 0 .5.2.5.5V14c0 .3.2.5.5.5h13.6c.3 0 .5-.2.5-.5V7.7c0-.3.2-.5.5-.5h1.8c.3 0 .5.2.5.5v9.1h-.2zM135 0h-10.9c-1.3 0-2.3 1-2.3 2.3v18.2c0 .3.2.5.5.5h.5v.5c0 .3.2.5.5.5s.5-.2.5-.5V21h11.8v.5c0 .3.2.5.5.5s.5-.2.5-.5V21h.5c.3 0 .5-.2.5-.5V2.3C137.3 1 136.2 0 135 0zm-5.9 20h-6.4V2.3c0-.8.6-1.4 1.4-1.4h5V20zm7.2 0H130v-5.5h6.4V20h-.1zm0-6.4H130V8.2h6.4v5.4h-.1zm0-6.3H130V.9h5c.8 0 1.4.6 1.4 1.4v5h-.1z"/><path class="st1" d="M127.7 9.1c-.3 0-.5.2-.5.5v.9c0 .3.2.5.5.5s.5-.2.5-.5v-1c0-.2-.2-.4-.5-.4z"/><path class="st2" d="M77.6 72.8c-3.2 0-4.9-1.5-6.3-2.8-1.3-1.2-2.3-2.1-4.6-2.1-2.2 0-3.3.9-4.6 2.1-1.5 1.3-3.1 2.8-6.3 2.8s-4.9-1.5-6.3-2.8c-1.3-1.2-2.3-2.1-4.6-2.1-2.2 0-3.3.9-4.6 2.1-1.5 1.3-3.1 2.8-6.3 2.8-3.2 0-4.9-1.5-6.3-2.8-1.3-1.2-2.3-2.1-4.6-2.1-2.2 0-3.3.9-4.6 2.1-1.5 1.3-3.1 2.8-6.3 2.8-3.2 0-4.9-1.5-6.3-2.8-1.3-1.2-2.3-2.1-4.6-2.1-.7 0-1.3-.6-1.3-1.3 0-.7.6-1.3 1.3-1.3 3.2 0 4.9 1.5 6.3 2.8 1.3 1.2 2.3 2.1 4.6 2.1 2.2 0 3.3-.9 4.6-2.1 1.5-1.3 3.1-2.8 6.3-2.8 3.2 0 4.9 1.5 6.3 2.8 1.3 1.2 2.3 2.1 4.6 2.1 2.2 0 3.3-.9 4.6-2.1 1.5-1.3 3.1-2.8 6.3-2.8 3.2 0 4.9 1.5 6.3 2.8 1.3 1.2 2.3 2.1 4.6 2.1 2.2 0 3.3-.9 4.6-2.1 1.5-1.3 3.1-2.8 6.3-2.8 3.2 0 4.9 1.5 6.3 2.8 1.3 1.2 2.3 2.1 4.6 2.1 2.2 0 3.3-.9 4.6-2.1 1.5-1.3 3.1-2.8 6.3-2.8.7 0 1.3.6 1.3 1.3 0 .7-.6 1.3-1.3 1.3-2.2 0-3.3.9-4.6 2.1-1.5 1.3-3.1 2.8-6.3 2.8z"/><path class="st2" d="M142.5 72.8c-3.2 0-4.9-1.5-6.3-2.8-1.3-1.2-2.3-2.1-4.6-2.1s-3.3.9-4.6 2.1c-1.5 1.3-3.1 2.8-6.3 2.8-3.2 0-4.9-1.5-6.3-2.8-1.3-1.2-2.3-2.1-4.6-2.1-2.2 0-3.3.9-4.6 2.1-1.5 1.3-3.1 2.8-6.3 2.8-3.2 0-4.9-1.5-6.3-2.8-1.3-1.2-2.3-2.1-4.6-2.1-2.2 0-3.3.9-4.6 2.1-1.5 1.3-3.1 2.8-6.3 2.8-3.2 0-4.9-1.5-6.3-2.8-1.3-1.2-2.3-2.1-4.6-2.1-.7 0-1.3-.6-1.3-1.3 0-.7.6-1.3 1.3-1.3 3.2 0 4.9 1.5 6.3 2.8 1.3 1.2 2.3 2.1 4.6 2.1 2.2 0 3.3-.9 4.6-2.1 1.5-1.3 3.1-2.8 6.3-2.8 3.2 0 4.9 1.5 6.3 2.8 1.3 1.2 2.3 2.1 4.6 2.1 2.2 0 3.3-.9 4.6-2.1 1.5-1.3 3.1-2.8 6.3-2.8 3.2 0 4.9 1.5 6.3 2.8 1.3 1.2 2.3 2.1 4.6 2.1 2.2 0 3.3-.9 4.6-2.1 1.5-1.3 3.1-2.8 6.3-2.8s4.9 1.5 6.3 2.8c1.3 1.2 2.3 2.1 4.6 2.1 2.2 0 3.3-.9 4.6-2.1 1.5-1.3 3.1-2.8 6.3-2.8.7 0 1.3.6 1.3 1.3 0 .7-.6 1.3-1.3 1.3-2.2 0-3.3.9-4.6 2.1-1.4 1.3-3.1 2.8-6.3 2.8z"/><path class="st2" d="M208.1 72.8c-3.2 0-4.9-1.5-6.3-2.8-1.3-1.2-2.3-2.1-4.6-2.1-2.2 0-3.3.9-4.6 2.1-1.5 1.3-3.1 2.8-6.3 2.8-3.2 0-4.9-1.5-6.3-2.8-1.3-1.2-2.3-2.1-4.6-2.1-2.2 0-3.3.9-4.6 2.1-1.5 1.3-3.1 2.8-6.3 2.8-3.2 0-4.9-1.5-6.3-2.8-1.3-1.2-2.3-2.1-4.6-2.1-2.2 0-3.3.9-4.6 2.1-1.5 1.3-3.1 2.8-6.3 2.8-3.2 0-4.9-1.5-6.3-2.8-1.3-1.2-2.3-2.1-4.6-2.1-.7 0-1.3-.6-1.3-1.3 0-.7.6-1.3 1.3-1.3 3.2 0 4.9 1.5 6.3 2.8 1.3 1.2 2.3 2.1 4.6 2.1 2.2 0 3.3-.9 4.6-2.1 1.5-1.3 3.1-2.8 6.3-2.8 3.2 0 4.9 1.5 6.3 2.8 1.3 1.2 2.3 2.1 4.6 2.1 2.2 0 3.3-.9 4.6-2.1 1.5-1.3 3.1-2.8 6.3-2.8 3.2 0 4.9 1.5 6.3 2.8 1.3 1.2 2.3 2.1 4.6 2.1 2.2 0 3.3-.9 4.6-2.1 1.5-1.3 3.1-2.8 6.3-2.8 3.2 0 4.9 1.5 6.3 2.8 1.3 1.2 2.3 2.1 4.6 2.1 2.2 0 3.3-.9 4.6-2.1 1.5-1.3 3.1-2.8 6.3-2.8.7 0 1.3.6 1.3 1.3 0 .7-.6 1.3-1.3 1.3-2.2 0-3.3.9-4.6 2.1-1.4 1.3-3 2.8-6.3 2.8z"/><text transform="translate(2.266 89.848)" class="st0" letter-spacing="3" font-size="10" font-family="BerlingskeSerifCn-Regular" font-weight="600">ИНТЕРНЕТ-МАГАЗИН МЕБЕЛИ</text></svg>