<svg xmlns="http://www.w3.org/2000/svg" viewBox="0 0 512 512"><path d="M500.7 349.2c-.2-.6-.2-1.3-.5-1.9l-94.9-189.8V32c0-17.6-14.4-32-32-32H138.7c-17.6 0-32 14.4-32 32v125.4L11.8 347.2c-.3.6-.3 1.3-.5 2C4.4 355.1 0 363.6 0 373.3v128c0 5.9 4.8 10.7 10.7 10.7h42.7c5.9 0 10.7-4.8 10.7-10.7v-32h384v32c0 5.9 4.8 10.7 10.7 10.7h42.7c5.9 0 10.7-4.8 10.7-10.7v-128c-.2-9.7-4.6-18.2-11.5-24.1zM128 32c0-5.9 4.8-10.7 10.7-10.7h234.7c5.9 0 10.7 4.8 10.7 10.7v117.3h-31.8l-4.2-21.1c-4.9-24.9-26.9-42.9-52.3-42.9h-79.4c-25.3 0-47.3 18-52.3 42.9l-4.2 21.1H128V32zm196.7 148.3c-6.1 7.4-15.1 11.7-24.7 11.7h-88c-9.6 0-18.6-4.3-24.7-11.7-6.1-7.4-8.5-17.1-6.6-26.6l4.3-21.3c3-14.9 16.2-25.7 31.4-25.7h79.4c15.2 0 28.4 10.8 31.4 25.7l4.3 21.3c1.7 9.5-.7 19.1-6.8 26.6zm-200.8-9.6H160c1.7 8.4 5.2 16.3 10.8 23.1 10.2 12.4 25.2 19.5 41.3 19.5H300c16 0 31.1-7.1 41.2-19.5 5.6-6.8 9.1-14.8 10.8-23.1h36.1l85.3 170.7H38.6l85.3-170.7zm-81.2 320H21.3v-21.3h21.3l.1 21.3zm448 0h-21.3v-21.3h21.3v21.3zm0-42.7H21.3v-74.7c0-5.9 4.8-10.7 10.7-10.7h448c5.9 0 10.7 4.8 10.7 10.7V448z" fill="#2d5266"/></svg>