<svg xmlns="http://www.w3.org/2000/svg" viewBox="0 0 480 480"><path d="M0 32v48h16v320h16v48h51.3l48-48h217.4l48 48H448v-48h16V80h16V32H0zm76.7 400H48v-32h60.7l-32 32zm355.3 0h-28.7l-32-32H432v32zm16-48H32v-16h416v16zm0-32H32v-80h140.7l32 32h70.6l32-32H448v80zm-252.7-80h89.4l-16 16h-57.4l-16-16zM448 256H32v-80h140.7l32 32h70.6l32-32H448v80zm-252.7-80h89.4l-16 16h-57.4l-16-16zM448 160H32V80h140.7l32 32h70.6l32-32H448v80zM195.3 80h89.4l-16 16h-57.4l-16-16zM464 64H16V48h448v16z" fill="#2d5266"/></svg>