<svg xmlns="http://www.w3.org/2000/svg" viewBox="0 0 512 512"><path d="M501.3 224h-160v-21.3h117.3c5.9 0 10.7-4.8 10.7-10.7V21.3c0-5.9-4.8-10.7-10.7-10.7h-256c-5.9 0-10.7 4.8-10.7 10.7V192c0 5.9 4.8 10.7 10.7 10.7H320V224H10.7C4.8 224 0 228.8 0 234.7s4.8 10.7 10.7 10.7h10.7v245.3c0 5.9 4.8 10.7 10.7 10.7s10.7-4.8 10.7-10.7V309.3H64v181.3c0 5.9 4.8 10.7 10.7 10.7h106.7c5.9 0 10.7-4.8 10.7-10.7V309.3h277.3v181.3c0 5.9 4.8 10.7 10.7 10.7s10.7-4.8 10.7-10.7V245.3h10.7c5.9 0 10.7-4.8 10.7-10.7s-5-10.6-10.9-10.6zm-288-42.7V32H448v149.3H213.3zM170.7 480H85.3v-42.7h85.3l.1 42.7zm0-64H85.3v-42.7h85.3l.1 42.7zm0-64H85.3v-42.7h85.3l.1 42.7zm298.6-64H42.7v-42.7h426.7l-.1 42.7z" fill="#2d5266"/></svg>