<svg version="1.1" id="Layer_1" xmlns="http://www.w3.org/2000/svg" x="0" y="0" viewBox="0 0 442.2 442.2" xml:space="preserve"><style>.st0{fill:#2d5266}</style><path class="st0" d="M419.4 174.5c-2.3-3.6-3.5-7.8-3.3-12.1l1.6-29.7c.9-15.9-7.7-30.7-21.9-37.9l-26.3-13.3c-3.8-1.9-6.9-5-8.8-8.8l-13.3-26.3c-7.1-14.2-22-22.8-37.9-21.9l-29.7 1.6c-4.3.2-8.5-.9-12.1-3.3L243.1 6.6c-13.3-8.8-30.7-8.8-44 0l-24.6 16.2c-3.6 2.3-7.8 3.5-12.1 3.3l-29.7-1.6c-15.9-.9-30.8 7.7-37.9 21.9L81.5 72.7c-1.9 3.8-5 6.9-8.8 8.8L46.4 94.8c-14.2 7.1-22.8 22-21.9 37.9l1.6 29.7c.2 4.3-.9 8.5-3.3 12.1L6.6 199.1c-8.8 13.3-8.8 30.7 0 44l16.2 24.6c2.3 3.6 3.5 7.8 3.3 12.1l-1.6 29.7c-.9 15.9 7.7 30.8 21.9 37.9l26.3 13.3c3.8 1.9 6.9 5 8.8 8.8l13.3 26.3c7.1 14.2 22 22.8 37.9 21.9l29.7-1.6c4.3-.2 8.5.9 12.1 3.3l24.6 16.2c13.3 8.8 30.7 8.8 44 0l24.6-16.2c3.6-2.3 7.8-3.5 12.1-3.3l29.7 1.6c15.9.9 30.8-7.7 37.9-21.9l13.3-26.3c1.9-3.8 5-6.9 8.8-8.8l26.3-13.3c14.2-7.1 22.8-22 21.9-37.9l-1.6-29.7c-.2-4.3.9-8.5 3.3-12.1l16.2-24.6c8.8-13.3 8.8-30.7 0-44l-16.2-24.6zm-.5 57.6l-16.2 24.6c-4.7 7.2-7 15.6-6.5 24.2l1.6 29.7c.4 7.9-3.9 15.4-11 19l-26.3 13.3c-7.6 3.8-13.9 10.1-17.7 17.7l-13.3 26.3c-3.6 7.1-11 11.4-19 11l-29.7-1.6c-8.6-.4-17 1.8-24.2 6.5l-24.5 16.1c-6.7 4.4-15.3 4.4-22 0l-24.6-16.2c-6.6-4.3-14.2-6.6-22.1-6.6-.7 0-1.5 0-2.2.1l-29.7 1.6c-7.9.4-15.4-3.9-19-11l-13.3-26.3c-3.8-7.6-10.1-13.9-17.7-17.7l-26.3-13.3c-7.1-3.6-11.4-11-11-19l1.6-29.7c.4-8.6-1.8-17-6.5-24.2l-16-24.5c-4.4-6.7-4.4-15.3 0-22l16.2-24.6c4.7-7.2 7-15.6 6.5-24.2l-1.6-29.7c-.4-7.9 3.9-15.4 11-19l26.3-13.3c7.6-3.8 13.9-10.1 17.7-17.7l13.3-26.3c3.6-7.1 11-11.4 19-11l29.7 1.6c8.6.4 17-1.8 24.2-6.5l24.5-16.1c6.7-4.4 15.3-4.4 22 0l24.6 16.2c7.2 4.7 15.6 7 24.2 6.5l29.7-1.6c7.9-.4 15.4 3.9 19 11l13.3 26.3c3.8 7.6 10.1 13.9 17.7 17.7l26.3 13.3c7.1 3.6 11.4 11 11 19l-1.6 29.7c-.4 8.6 1.8 17 6.5 24.2l16.2 24.6c4.3 6.7 4.3 15.3-.1 21.9z"/><path class="st0" d="M182.2 216.5c18.9 0 34.3-15.4 34.3-34.3s-15.4-34.3-34.3-34.3-34.3 15.4-34.3 34.3 15.4 34.3 34.3 34.3zm0-48.7c7.9 0 14.3 6.4 14.3 14.3s-6.4 14.3-14.3 14.3-14.3-6.4-14.3-14.3 6.4-14.3 14.3-14.3zm77.8 57.9c-18.9 0-34.3 15.4-34.3 34.3s15.4 34.3 34.3 34.3 34.3-15.4 34.3-34.3-15.4-34.3-34.3-34.3zm0 48.7c-7.9 0-14.3-6.4-14.3-14.3s6.4-14.3 14.3-14.3 14.3 6.4 14.3 14.3-6.4 14.3-14.3 14.3zm25.3-117.5c-1.9-1.9-4.4-2.9-7.1-2.9s-5.2 1.1-7.1 2.9l-111 111c-1.9 1.9-2.9 4.4-2.9 7.1s1.1 5.2 2.9 7.1c1.9 1.9 4.4 2.9 7.1 2.9 2.7 0 5.2-1.1 7.1-2.9l111-111c3.9-4 3.9-10.3 0-14.2z"/></svg>