<svg version="1.1" id="Layer_1" xmlns="http://www.w3.org/2000/svg" x="0" y="0" viewBox="0 0 490.7 490.7" xml:space="preserve"><style>.st0{fill:#5586a4}</style><path class="st0" d="M480 0H10.7C4.8 0 0 4.8 0 10.7s4.8 10.7 10.7 10.7h10.7V480c0 5.9 4.8 10.7 10.7 10.7s10.7-4.8 10.7-10.7v-10.7H448V480c0 5.9 4.8 10.7 10.7 10.7s10.7-4.8 10.7-10.7V21.3H480c5.9 0 10.7-4.8 10.7-10.7S485.9 0 480 0zm-32 448H42.7V320H448v128zm0-149.3H42.7v-128H448v128zm0-149.4H42.7v-128H448v128z"/><path class="st0" d="M266.7 192h-21.3c-5.9 0-10.7 4.8-10.7 10.7s4.8 10.7 10.7 10.7h21.3c5.9 0 10.7-4.8 10.7-10.7s-4.8-10.7-10.7-10.7zm0-149.3h-21.3c-5.9 0-10.7 4.8-10.7 10.7S239.4 64 245.3 64h21.3c5.9 0 10.7-4.8 10.7-10.7s-4.7-10.6-10.6-10.6zm0 298.6h-21.3c-5.9 0-10.7 4.8-10.7 10.7s4.8 10.7 10.7 10.7h21.3c5.9 0 10.7-4.8 10.7-10.7s-4.8-10.7-10.7-10.7z"/></svg>