<svg xmlns="http://www.w3.org/2000/svg" viewBox="0 0 512 512"><path d="M510.7 269.6l-17.6-39.1-26.7-59.4c-2.4-5.3-7.7-8.7-13.5-8.7h-83.7v-24.6c0-19-15.5-34.5-34.5-34.5H34.5c-19 0-34.5 15.5-34.5 34.5v196.9c0 19 15.5 34.5 34.5 34.5h31.6c6.4 22.7 27.3 39.4 52.1 39.4s45.6-16.7 52.1-39.4h132.1c6.4 22.7 27.4 39.4 52.1 39.4s45.6-16.7 52.1-39.4h71c19 0 34.5-15.5 34.5-34.5v-59.1c-.1-2-.5-4.1-1.4-6zM369.2 192h74.1l13.3 29.5h-87.4V192zm-251 187.1c-13.6 0-24.6-11-24.6-24.6s11-24.6 24.6-24.6 24.6 11 24.6 24.6-11.1 24.6-24.6 24.6zm209.3-71.6c-.3.2-.5.3-.8.5-.9.5-1.7 1.1-2.6 1.6-.1.1-.2.2-.4.3-.7.5-1.4 1-2.1 1.6-.3.2-.5.4-.8.6-.6.5-1.1.9-1.7 1.4-.2.2-.5.4-.7.6-.7.7-1.5 1.3-2.2 2l-.1.1c-.7.7-1.4 1.4-2 2.2-.2.2-.4.5-.6.7-.5.6-.9 1.1-1.4 1.7-.2.3-.4.5-.6.8-.5.7-1.1 1.4-1.6 2.1-.1.1-.2.2-.3.4-.6.8-1.1 1.7-1.6 2.6-.2.3-.3.5-.5.8-.4.7-.7 1.3-1.1 2-.2.3-.3.6-.5.9-.4.8-.7 1.5-1.1 2.3l-.3.6c-.4 1-.8 1.9-1.1 2.9-.1.3-.2.5-.3.8-.3.8-.5 1.5-.7 2.3 0 .2-.1.3-.2.5H170.3c-.1-.3-.2-.5-.2-.8l-.3-.9c-.2-.5-.4-1.1-.5-1.6-.1-.2-.2-.5-.3-.7-.3-.8-.6-1.5-.9-2.3 0-.1-.1-.2-.1-.3-.3-.6-.6-1.3-.9-1.9-.1-.2-.2-.5-.4-.7-.2-.5-.5-1-.7-1.4-.1-.3-.3-.5-.4-.8-.3-.5-.5-.9-.8-1.4-.1-.3-.3-.5-.4-.7l-.9-1.5c-.1-.2-.2-.4-.4-.6-.5-.7-.9-1.3-1.4-2-.1-.1-.2-.2-.3-.4l-1.2-1.5c-.2-.2-.4-.4-.5-.6-.3-.4-.7-.8-1.1-1.2l-.6-.6c-.4-.4-.7-.8-1.1-1.2l-.6-.6-1.3-1.3-.4-.4c-.6-.5-1.2-1.1-1.8-1.6-.1-.1-.3-.2-.4-.3l-1.5-1.2c-.2-.2-.4-.3-.7-.5-.4-.3-.9-.6-1.3-.9-.2-.2-.5-.3-.7-.5-.5-.3-.9-.6-1.4-.9-.2-.1-.5-.3-.7-.4-.6-.3-1.1-.7-1.7-1-.1-.1-.2-.1-.4-.2-.7-.4-1.4-.8-2.2-1.1l-.6-.3c-.5-.3-1.1-.5-1.6-.7-.3-.1-.5-.2-.8-.3l-1.5-.6c-.3-.1-.6-.2-.8-.3-.5-.2-1.1-.4-1.6-.5-.3-.1-.5-.2-.8-.2l-2.1-.6c-.1 0-.2-.1-.3-.1l-2.4-.6c-.2 0-.5-.1-.7-.1-.6-.1-1.2-.2-1.7-.3-.3 0-.6-.1-.9-.1-.5-.1-1.1-.1-1.6-.2-.3 0-.6-.1-.9-.1-.6-.1-1.2-.1-1.7-.1-.3 0-.5 0-.8-.1-.9 0-1.7-.1-2.6-.1s-1.7 0-2.6.1c-.3 0-.5 0-.8.1-.6 0-1.2.1-1.7.1-.3 0-.6.1-.9.1-.5.1-1.1.1-1.6.2-.3 0-.6.1-.9.1-.6.1-1.2.2-1.7.3-.2 0-.5.1-.7.1l-2.4.6c-.1 0-.2 0-.3.1l-2.1.6c-.3.1-.5.2-.8.2-.5.2-1.1.4-1.6.5-.3.1-.6.2-.8.3l-1.5.6c-.3.1-.5.2-.8.3-.6.2-1.1.5-1.6.7l-.6.3c-.7.4-1.5.7-2.2 1.1-.1.1-.2.1-.4.2-.6.3-1.2.7-1.7 1-.2.1-.5.3-.7.4-.5.3-.9.6-1.4.9-.2.2-.5.3-.7.5-.4.3-.9.6-1.3.9-.2.2-.4.3-.7.5l-1.5 1.2c-.1.1-.3.2-.4.3-.6.5-1.2 1-1.8 1.6l-.4.4c-.5.4-.9.8-1.3 1.3l-.6.6c-.4.4-.7.8-1.1 1.2l-.6.6c-.4.4-.7.8-1.1 1.2-.2.2-.4.4-.5.6l-1.2 1.5c-.1.1-.2.2-.3.4-.5.6-.9 1.3-1.4 2-.1.2-.2.4-.4.6l-.9 1.5c-.2.2-.3.5-.4.7-.3.5-.5.9-.8 1.4-.1.3-.3.5-.4.8-.3.5-.5 1-.7 1.4-.1.2-.2.5-.4.7-.3.6-.6 1.3-.9 1.9 0 .1-.1.2-.1.3-.3.7-.6 1.5-.9 2.3-.1.2-.2.5-.3.7-.2.5-.4 1.1-.5 1.6l-.3.9c-.1.3-.2.5-.2.8h-32c-2.7 0-4.9-2.2-4.9-4.9V137.8c0-2.7 2.2-4.9 4.9-4.9h300.3c2.7 0 4.9 2.2 4.9 4.9v164.5c-.2 0-.3.1-.5.2-.8.2-1.5.5-2.3.7-.3.1-.5.2-.8.3-1 .4-1.9.7-2.9 1.1l-.6.3c-.8.3-1.5.7-2.3 1.1-.3.1-.6.3-.9.5-.6.3-1.2.6-1.9 1zm27 71.6c-13.6 0-24.6-11-24.6-24.6s11-24.6 24.6-24.6 24.6 11 24.6 24.6-11.1 24.6-24.6 24.6zm128-44.3c0 2.7-2.2 4.9-4.9 4.9h-71c0-.2-.1-.3-.2-.5-.2-.8-.5-1.5-.7-2.3-.1-.3-.2-.5-.3-.8-.4-1-.7-2-1.1-2.9l-.3-.6c-.3-.8-.7-1.5-1.1-2.3-.1-.3-.3-.6-.5-.9-.4-.7-.7-1.3-1.1-2-.2-.3-.3-.5-.5-.8-.5-.9-1.1-1.7-1.6-2.6-.1-.1-.2-.2-.3-.4-.5-.7-1-1.4-1.6-2.1-.2-.3-.4-.5-.6-.8-.5-.6-.9-1.1-1.4-1.7-.2-.2-.4-.5-.6-.7-.7-.7-1.3-1.5-2-2.2l-.1-.1c-.7-.7-1.4-1.4-2.2-2-.2-.2-.5-.4-.7-.6-.6-.5-1.1-.9-1.7-1.4-.3-.2-.5-.4-.8-.6-.7-.5-1.4-1.1-2.1-1.6-.1-.1-.2-.2-.4-.3-.8-.6-1.7-1.1-2.6-1.6-.3-.2-.5-.3-.8-.5-.7-.4-1.3-.7-2-1.1-.3-.2-.6-.3-.9-.5-.7-.4-1.5-.7-2.3-1.1l-.6-.3c-1-.4-1.9-.8-2.9-1.1-.3-.1-.5-.2-.8-.3-.7-.3-1.5-.5-2.3-.7-.2 0-.3-.1-.5-.2v-51.3h101l12.5 27.8v56.2z" fill="#fff"/></svg>